<svg xmlns="http://www.w3.org/2000/svg" width="64" height="64" viewBox="0 0 24.366 24.419"><path d="M22.101 0c.074.03.146.064.222.089.235.077.439.2.614.377.33.337.665.67.998 1.004.397.398.502.878.388 1.415-.096.45-.337.819-.657 1.14l-1.8 1.805A230540.32 230540.32 0 0 1 6.241 21.504c-.085.085-.173.167-.273.264-.049-.028-.1-.045-.134-.079-1.011-1.011-2.02-2.023-3.028-3.037-.036-.037-.063-.083-.086-.116.006-.031.007-.043.012-.055a.148.148 0 0 1 .021-.034.746.746 0 0 1 .053-.061l.056-.058L18.71 2.421c.01-.01.02-.019.028-.029l.027-.03c.008-.01.019-.02.024-.032s.01-.026.011-.039c.001-.012-.004-.025-.007-.037-.021-.014-.041-.04-.062-.04-.296-.003-.592-.002-.927-.002-.099.097-.224.218-.347.342-2.076 2.082-4.15 4.165-6.228 6.247-.095.095-.189.191-.289.281a.62.62 0 0 1-.446.16.445.445 0 0 1-.45-.468.634.634 0 0 1 .157-.406c.078-.093.165-.179.25-.265l6.71-6.737c.076-.076.152-.152.231-.226a.604.604 0 0 1 .56-.166c.333.076.67.06 1.006.068.363.01.727.002 1.109.002l.308-.302c.332-.329.708-.578 1.173-.678.053-.009.099-.042.148-.064h.405zM1.981 19.247c.344.269 3.022 2.962 3.204 3.211-.015.021-.024.053-.045.062-.879.375-1.757.748-2.649 1.126l-.413-.358c-.366.14-.683.369-1.021.556-.341.188-.678.385-1.014.576-.079-.074-.03-.133-.001-.186l.88-1.546c.066-.116.128-.235.196-.361l-.271-.331c.359-.914.748-1.815 1.134-2.749z" fill-rule="evenodd" clip-rule="evenodd"/></svg>