<svg xmlns="http://www.w3.org/2000/svg" width="64" height="64" viewBox="0 0 38.33 38.329"><path fill-rule="evenodd" clip-rule="evenodd" d="M19.164 0l6.776 2.806 6.776 2.808 2.807 6.775 2.807 6.776-2.807 6.776-2.807 6.775-6.776 2.807-6.776 2.806-6.775-2.806-6.775-2.807-2.807-6.775L0 19.165l2.807-6.776 2.807-6.775 6.775-2.808L19.164 0zm0 30.751c.459-.596 1.314-.567 1.896-.403.132.036.27-.04.308-.171.093-.327.237-.646.429-.955.407-.658.681-.534-.077-.959a5.91 5.91 0 0 0-.998-.446c-1.162-.401-1.949-.401-3.112 0-.35.12-.686.271-.998.446-.757.425-.483.301-.077.959.192.31.337.628.431.955a.248.248 0 0 0 .306.171c.579-.164 1.435-.193 1.892.403zm-5.213-13.308a.156.156 0 0 0-.084.288c.859.529 1.397 1.429 2.181 1.575.834.157 1.486-.625 1.6-1.519a.15.15 0 0 0-.067-.147.152.152 0 0 0-.164-.006c-.675.388-2.241-.178-3.466-.191zm5.213-2.966c-1.864-2.005-4.161-2.813-5.928-2.171-4.646 1.689-3.52 7.509-1.967 9.462.244-.521.588-.975 1.509-1.318-.053 1.906.021 2.603.822 3.327.457-1.268 1.188-2.068 2.245-2.31-.777.817-1.34 1.733-1.612 2.785-.278 1.074-.339 1.711.38 2.584.312.38.671.66 1.04.917a7.631 7.631 0 0 1 2.396-1.052c.084-.021.169-.036.256-.059.418-.109.459-.177.459-.949 0-.481.032-.488-.311-.823a5.44 5.44 0 0 0-1.144-.879c-.511-.289-.94-.201-.553-.695.317-.404.484-.321.951-.321h2.913c.468 0 .635-.083.952.321.388.494-.042.407-.554.695a5.58 5.58 0 0 0-1.144.879c-.343.335-.311.342-.311.823 0 .772.041.84.46.949.086.023.172.039.256.059a7.629 7.629 0 0 1 2.396 1.052c.37-.257.728-.537 1.04-.917.719-.873.658-1.51.379-2.584-.273-1.051-.836-1.968-1.612-2.785 1.058.242 1.788 1.042 2.245 2.31.801-.724.876-1.42.823-3.327.921.343 1.265.796 1.508 1.318 1.554-1.953 2.68-7.772-1.966-9.462-1.766-.642-4.062.166-5.928 2.171zm5.214 2.966c-1.224.013-2.791.578-3.465.191a.15.15 0 0 0-.164.006.15.15 0 0 0-.066.147c.112.894.765 1.675 1.599 1.519.784-.146 1.32-1.046 2.18-1.575a.155.155 0 0 0 .069-.175.16.16 0 0 0-.153-.113z"/></svg>