<svg xmlns="http://www.w3.org/2000/svg" width="64" height="64" viewBox="0 0 63.507 63.516"><g fill-rule="evenodd" clip-rule="evenodd"><path d="M63.507 31.811c.057 16.797-13.473 31.701-31.743 31.705C13.447 63.518-.104 48.53 0 31.612.111 13.706 14.922-.051 31.859 0c16.887.051 31.697 13.858 31.648 31.811zM31.779 57.157c14.435.033 25.439-11.994 25.393-25.467-.047-13.824-11.526-25.406-25.54-25.34-13.827.065-25.261 11.533-25.289 25.381-.027 13.486 11.005 25.48 25.436 25.426z"/><path d="M31.62 31.985c.037.576.063 1.133.111 1.689.158 1.85-.358 3.463-1.654 4.813-.24.25-.448.533-.661.809-.038.049-.029.135-.051.25.193.018.396.094.566.047.838-.23 1.659-.162 2.499.006 1.374.277 2.758.504 4.138.754a5.483 5.483 0 0 0 2.09.002c.765-.156 1.494-.373 2.089-.922.201-.184.453-.316.688-.461.052-.033.133-.02.229-.031.13.139.308.27.408.445a176.286 176.286 0 0 1 1.75 3.119c.281.514.189.881-.266 1.303-1.496 1.387-3.265 2.156-5.295 2.305-1.832.133-3.645.031-5.4-.584-.462-.162-.943-.273-1.399-.451-.733-.283-1.495-.357-2.27-.396-1.719-.088-3.358.152-4.844 1.096-.114.072-.254.104-.428.17-.146-.094-.375-.162-.479-.316-.667-.988-1.312-1.99-1.954-2.994-.223-.348-.15-.594.204-.895.588-.5 1.183-.99 1.751-1.512.626-.572 1.11-1.26 1.532-1.994.954-1.66 1.214-3.432.766-5.279-.262-1.08-.28-1.219-1.576-1.223-.63 0-1.26-.037-1.89-.061-.239-.01-.428-.18-.467-.361-.148-.689-.169-1.393.026-2.08.033-.111.182-.213.3-.271.12-.061.269-.072.406-.096.533-.09 1.122.129 1.596-.291.09-.596-.276-1.076-.434-1.604-.571-1.914-.789-3.834-.424-5.816a9.539 9.539 0 0 1 .686-2.201c.986-2.191 2.643-3.572 4.994-4.121 2.297-.537 4.587-.561 6.869.051 2.115.564 3.8 1.762 5.05 3.559.895 1.287 1.465 2.717 1.757 4.246.158.824.202 1.67.282 2.508.032.35-.271.666-.652.674-1.122.021-2.244.037-3.366.035-1.688-.002-1.69.068-2.015-1.668a6.832 6.832 0 0 0-.485-1.6c-.674-1.453-1.811-2.293-3.443-2.357a11.779 11.779 0 0 0-1.68.053c-.79.086-1.477.439-2.062.971a2.896 2.896 0 0 0-.927 1.611c-.259 1.283-.117 2.516.451 3.688.274.564.615 1.1.941 1.639.233.385.581.59 1.043.592 1.333.004 2.666.006 3.999.023.275.004.558.047.823.117a.477.477 0 0 1 .284.277c.203.688.164 1.387.03 2.08a.453.453 0 0 1-.274.291c-.268.07-.551.102-.829.107-.842.021-1.684.01-2.524.039-.19.005-.379.13-.609.216z"/></g></svg>