<svg xmlns="http://www.w3.org/2000/svg" width="64" height="64" viewBox="0 0 30.956 30.518"><g fill-rule="evenodd" clip-rule="evenodd"><path d="M16.437 0c.857.139 1.723.236 2.569.424 6.074 1.348 10.802 6.388 11.769 12.521 1.257 7.969-4.16 15.698-12.1 17.262C10.866 31.746 3.271 27.453.816 20.062c-.367-1.104-.494-2.287-.733-3.433-.026-.12-.056-.239-.083-.358v-1.992c.064-.449.12-.899.192-1.346A15.362 15.362 0 0 1 12.001.417c.832-.186 1.684-.28 2.526-.417h1.91zm-.945 3.048C8.628 3.042 3.087 8.517 3.074 15.315 3.062 21.995 8.631 27.479 15.45 27.5c6.84.022 12.43-5.463 12.439-12.205.01-6.746-5.553-12.241-12.397-12.247z"/><path d="M16.869 5.591c0 .341.016.657-.004.97-.02.285.065.41.369.46.923.154 1.797.445 2.537 1.051 1.131.925 1.725 2.123 1.844 3.603h-2.948c-.157-1.018-.595-1.804-1.798-1.997v2.762c0 1.034 0 1.035.96 1.383 1.544.56 2.732 1.504 3.101 3.172.489 2.215-.029 4.203-1.801 5.382-.636.423-1.426.615-2.25.955v1.623h-1.373c0-.457-.031-.898.009-1.333.038-.409-.144-.489-.503-.554-.675-.121-1.365-.25-2-.5-1.801-.706-2.732-2.118-3.042-3.983-.041-.244-.065-.49-.103-.773h2.754c.071 1.767 1.233 2.481 2.839 2.837.019-.172.043-.289.044-.406.003-1.259-.007-2.518.008-3.777.003-.292-.093-.407-.374-.477a32.93 32.93 0 0 1-2.353-.657c-.922-.305-1.731-.805-2.305-1.616-1.101-1.559-.735-3.951.807-5.251 1.098-.925 2.41-1.326 3.808-1.47.322-.033.438-.123.414-.444-.024-.312-.005-.627-.005-.96h1.365zM15.48 9.699c-.904.066-1.76.133-2.427.773-.63.604-.515 1.571.233 2.011.667.393 1.413.514 2.194.626v-3.41zm.669 6.833l-.097.12.823 3.929c1.113-.179 1.789-.945 1.791-1.996.001-.49-.115-.979-.569-1.217-.624-.326-1.296-.561-1.948-.836z"/></g></svg>