<svg xmlns="http://www.w3.org/2000/svg" width="280" height="64" viewBox="0 0 163.582 38.329"><path d="M57.499 8.276h2.837v12.71h-2.837v-5h-5.055v5h-2.837V8.276h2.837v5.31h5.055v-5.31zm20.293 10.956c-1.285 1.255-2.867 1.882-4.746 1.882s-3.461-.627-4.746-1.882c-1.285-1.254-1.927-2.815-1.927-4.682 0-1.867.642-3.428 1.927-4.682 1.285-1.255 2.867-1.882 4.746-1.882s3.461.627 4.746 1.882c1.284 1.254 1.927 2.815 1.927 4.682 0 1.867-.643 3.428-1.927 4.682zm-.964-4.673c0-1.133-.363-2.1-1.091-2.9s-1.622-1.2-2.683-1.2-1.954.4-2.682 1.2-1.091 1.767-1.091 2.9.363 2.097 1.091 2.891 1.621 1.191 2.682 1.191 1.955-.397 2.683-1.191 1.091-1.758 1.091-2.891zm11.792-3.746a1.096 1.096 0 0 0-.409.891c0 .37.166.664.5.882.333.218 1.103.476 2.309.773 1.206.297 2.143.743 2.81 1.336.667.594 1 1.461 1 2.6 0 1.14-.427 2.064-1.281 2.773-.855.709-1.979 1.064-3.373 1.064-2.013 0-3.825-.746-5.438-2.237l1.691-2.073c1.37 1.2 2.637 1.8 3.801 1.8.521 0 .93-.112 1.227-.336.297-.224.446-.527.446-.909s-.158-.685-.474-.909c-.315-.224-.939-.452-1.872-.682-1.479-.351-2.562-.809-3.246-1.373-.686-.564-1.027-1.449-1.027-2.655s.434-2.137 1.3-2.791c.867-.655 1.948-.982 3.246-.982.849 0 1.697.146 2.546.436a6.827 6.827 0 0 1 2.218 1.237l-1.437 2.073c-1.103-.836-2.242-1.255-3.418-1.255-.473.001-.846.113-1.119.337zm22.956 8.419c-1.285 1.255-2.867 1.882-4.746 1.882s-3.461-.627-4.746-1.882c-1.285-1.254-1.927-2.815-1.927-4.682 0-1.867.642-3.428 1.927-4.682 1.285-1.255 2.867-1.882 4.746-1.882s3.461.627 4.746 1.882c1.284 1.254 1.927 2.815 1.927 4.682 0 1.867-.643 3.428-1.927 4.682zm-.964-4.673c0-1.133-.363-2.1-1.091-2.9s-1.622-1.2-2.683-1.2-1.954.4-2.682 1.2-1.091 1.767-1.091 2.9.363 2.097 1.091 2.891 1.621 1.191 2.682 1.191 1.955-.397 2.683-1.191 1.091-1.758 1.091-2.891zm19.239-2.064c0 2.037-.807 3.352-2.419 3.946l3.219 4.546h-3.491l-2.818-4.055h-1.964v4.055h-2.837V8.276h4.819c1.976 0 3.385.334 4.228 1 .841.667 1.263 1.74 1.263 3.219zm-3.419 1.509c.352-.315.527-.815.527-1.5s-.182-1.155-.545-1.409c-.364-.255-1-.382-1.909-.382h-2.128v3.764h2.073c.97 0 1.63-.157 1.982-.473zm19.13-5.728v2.528h-6.328v2.618h5.691v2.418h-5.691v2.637h6.528v2.509h-9.365V8.276h9.165zm15.254 0h2.837v12.71h-2.837l-6.055-7.964v7.964h-2.837V8.276h2.655l6.236 8.183V8.276zM52.521 31.546l-.323-.751H50.74l-.323.751h-.825l1.502-3.477h.751l1.502 3.477h-.826zm-1.05-2.442l-.438 1.01h.87l-.432-1.01zm5.591 1.544c.13.161.304.241.522.241s.393-.08.52-.241c.128-.161.192-.38.192-.659v-1.92h.775v1.945c0 .504-.139.892-.418 1.162-.278.271-.635.405-1.069.405s-.792-.136-1.071-.408c-.28-.272-.421-.658-.421-1.159v-1.945h.776v1.92c0 .279.065.498.194.659zm6.775-1.908v2.806h-.776V28.74h-.984v-.671h2.745v.671h-.985zm6.197-.671h.775v3.477h-.775v-1.368h-1.383v1.368h-.776v-3.477h.776v1.453h1.383v-1.453zm6.625 0v.691h-1.73v.716h1.557v.662h-1.557v.721h1.785v.687h-2.562v-3.477h2.507zm5.666 0h.775v3.477h-.775l-1.656-2.179v2.179h-.776v-3.477h.727l1.706 2.238v-2.238zm5.591.671v2.806h-.776V28.74h-.984v-.671H88.9v.671h-.984zm4.039-.671h.776v3.477h-.776v-3.477zm5.715 2.79c.382 0 .693-.151.936-.453l.497.512c-.395.445-.859.667-1.396.667-.535 0-.977-.169-1.323-.507-.346-.338-.52-.765-.52-1.281s.177-.946.53-1.291a1.782 1.782 0 0 1 1.295-.518c.57 0 1.048.217 1.433.652l-.482.547c-.245-.305-.55-.458-.915-.458-.292 0-.541.095-.748.286-.208.19-.312.448-.312.771s.098.583.294.778a.96.96 0 0 0 .711.295zm8.237-.477v-.662h1.771v.662h-1.771zm9.633-1.619a.3.3 0 0 0-.112.244c0 .102.046.182.137.242.092.06.302.13.632.211.33.081.586.203.769.365.183.163.273.4.273.711s-.116.564-.351.759c-.233.194-.541.291-.923.291-.55 0-1.046-.204-1.487-.612l.463-.567c.375.328.722.493 1.04.493a.544.544 0 0 0 .335-.092c.082-.061.122-.144.122-.249s-.043-.188-.129-.249c-.087-.062-.257-.124-.513-.187-.404-.096-.7-.221-.888-.375-.188-.154-.281-.396-.281-.726s.119-.584.355-.764c.237-.179.533-.269.889-.269.231 0 .464.04.696.12.231.08.434.192.606.338l-.393.567c-.302-.229-.614-.343-.936-.343a.467.467 0 0 0-.304.092zm4.847-.694h.776v3.477h-.776v-3.477zm6.551 0h.775v3.477h-.775l-1.656-2.179v2.179h-.776v-3.477h.727l1.706 2.238v-2.238zm5.715 2.79c.382 0 .693-.151.936-.453l.497.512c-.395.445-.859.667-1.396.667-.535 0-.977-.169-1.323-.507-.346-.338-.52-.765-.52-1.281s.177-.946.53-1.291a1.782 1.782 0 0 1 1.295-.518c.57 0 1.048.217 1.433.652l-.482.547c-.245-.305-.55-.458-.915-.458-.292 0-.541.095-.748.286-.208.19-.312.448-.312.771s.098.583.294.778a.962.962 0 0 0 .711.295zm7.038-2.79v.691h-1.73v.716h1.557v.662h-1.557v.721h1.785v.687h-2.562v-3.477h2.507zm6.761 0h1.407v3.477h-.746V28.73h-.661v-.661zm5.705 2.85c.215 0 .382-.072.5-.216.117-.144.189-.341.216-.589-.212.143-.44.214-.687.214-.325 0-.596-.107-.813-.321-.217-.214-.325-.497-.325-.848s.117-.634.351-.848.528-.321.883-.321c.245 0 .458.047.64.142.181.094.322.226.425.395.195.329.294.74.294 1.234 0 .318-.039.598-.117.838a1.475 1.475 0 0 1-.316.57 1.331 1.331 0 0 1-.989.417c-.163 0-.318-.024-.468-.072a1.496 1.496 0 0 1-.338-.145 3.54 3.54 0 0 1-.264-.187l.388-.547.092.077c.038.031.112.074.222.126a.67.67 0 0 0 .306.081zm.107-1.253a.565.565 0 0 0 .386-.134c.103-.089.154-.207.154-.353s-.05-.272-.149-.378c-.1-.106-.224-.159-.373-.159s-.271.047-.365.142c-.095.095-.142.215-.142.361s.043.269.129.371a.45.45 0 0 0 .36.15zm5.509 1.253c.215 0 .382-.072.5-.216.117-.144.189-.341.216-.589-.212.143-.44.214-.687.214-.325 0-.596-.107-.813-.321-.217-.214-.325-.497-.325-.848s.117-.634.351-.848.528-.321.883-.321c.245 0 .458.047.64.142.181.094.322.226.425.395.195.329.294.74.294 1.234 0 .318-.039.598-.117.838a1.475 1.475 0 0 1-.316.57 1.331 1.331 0 0 1-.989.417c-.163 0-.318-.024-.468-.072a1.496 1.496 0 0 1-.338-.145 3.54 3.54 0 0 1-.264-.187l.388-.547.092.077c.038.031.112.074.222.126a.67.67 0 0 0 .306.081zm.107-1.253a.565.565 0 0 0 .386-.134c.103-.089.154-.207.154-.353s-.05-.272-.149-.378c-.1-.106-.224-.159-.373-.159s-.271.047-.365.142c-.095.095-.142.215-.142.361s.043.269.129.371c.085.099.206.15.36.15zm4.295-1.597h1.407v3.477h-.746V28.73h-.661v-.661z"/><path fill-rule="evenodd" clip-rule="evenodd" d="M19.164 0l6.776 2.806 6.776 2.808 2.807 6.775 2.807 6.776-2.807 6.776-2.807 6.775-6.776 2.807-6.776 2.806-6.775-2.806-6.775-2.807-2.807-6.775L0 19.165l2.807-6.776 2.807-6.775 6.775-2.808L19.164 0zm0 30.751c.459-.596 1.314-.567 1.896-.403.132.036.27-.04.308-.171.093-.327.237-.646.429-.955.407-.658.681-.534-.077-.959a5.91 5.91 0 0 0-.998-.446c-1.162-.401-1.949-.401-3.112 0-.35.12-.686.271-.998.446-.757.425-.483.301-.077.959.192.31.337.628.431.955a.248.248 0 0 0 .306.171c.579-.164 1.435-.193 1.892.403zm-5.213-13.308a.156.156 0 0 0-.084.288c.859.529 1.397 1.429 2.181 1.575.834.157 1.486-.625 1.6-1.519a.15.15 0 0 0-.067-.147.152.152 0 0 0-.164-.006c-.675.388-2.241-.178-3.466-.191zm5.213-2.966c-1.864-2.005-4.161-2.813-5.928-2.171-4.646 1.689-3.52 7.509-1.967 9.462.244-.521.588-.975 1.509-1.318-.053 1.906.021 2.603.822 3.327.457-1.268 1.188-2.068 2.245-2.31-.777.817-1.34 1.733-1.612 2.785-.278 1.074-.339 1.711.38 2.584.312.38.671.66 1.04.917a7.631 7.631 0 0 1 2.396-1.052c.084-.021.169-.036.256-.059.418-.109.459-.177.459-.949 0-.481.032-.488-.311-.823a5.44 5.44 0 0 0-1.144-.879c-.511-.289-.94-.201-.553-.695.317-.404.484-.321.951-.321h2.913c.468 0 .635-.083.952.321.388.494-.042.407-.554.695a5.58 5.58 0 0 0-1.144.879c-.343.335-.311.342-.311.823 0 .772.041.84.46.949.086.023.172.039.256.059a7.629 7.629 0 0 1 2.396 1.052c.37-.257.728-.537 1.04-.917.719-.873.658-1.51.379-2.584-.273-1.051-.836-1.968-1.612-2.785 1.058.242 1.788 1.042 2.245 2.31.801-.724.876-1.42.823-3.327.921.343 1.265.796 1.508 1.318 1.554-1.953 2.68-7.772-1.966-9.462-1.766-.642-4.062.166-5.928 2.171zm5.214 2.966c-1.224.013-2.791.578-3.465.191a.15.15 0 0 0-.164.006.15.15 0 0 0-.066.147c.112.894.765 1.675 1.599 1.519.784-.146 1.32-1.046 2.18-1.575a.155.155 0 0 0 .069-.175.16.16 0 0 0-.153-.113z"/></svg>