<svg xmlns="http://www.w3.org/2000/svg" width="64" height="64" viewBox="0 0 13.896 29.807"><path fill-rule="evenodd" clip-rule="evenodd" d="M2.967 29.807c-.008-.196-.024-.394-.024-.59l-.001-13.67v-.63H.001V9.673h2.941c0-.23-.005-.421 0-.613.038-1.396-.028-2.804.141-4.182C3.411 2.222 5.333.422 8 .091c.118-.014.23-.06.345-.091h5.469v5.106h-2.251c-.379 0-.76-.012-1.138.008-.689.038-1.198.412-1.23 1.053-.058 1.146-.017 2.297-.017 3.498h4.717l-.544 5.233H9.19c-.016.148-.038.264-.038.379-.002 4.783-.001 9.565-.001 14.347 0 .061.009.121.014.182l-6.198.001z"/></svg>