<svg xmlns="http://www.w3.org/2000/svg" width="64" height="64" viewBox="0 0 15.989 16.005"><path fill-rule="evenodd" clip-rule="evenodd" d="M8.633 0c.52.108 1.047.187 1.557.329 3.573.993 6.017 4.439 5.784 8.136-.237 3.771-3.071 6.889-6.761 7.44-.168.025-.334.066-.5.1H7.272c-.361-.074-.727-.139-1.086-.224-3.767-.894-6.323-4.253-6.18-8.115C.146 3.893 2.995.705 6.766.103c.196-.032.39-.069.586-.103h1.281zm6.174 8.037c.014-3.752-3.014-6.827-6.739-6.846C4.28 1.172 1.193 4.192 1.18 7.929c-.013 3.808 3.008 6.877 6.778 6.886 3.774.009 6.836-3.021 6.849-6.778z"/></svg>