<svg xmlns="http://www.w3.org/2000/svg" width="64" height="64" viewBox="0 0 40.391 31.298"><g fill-rule="evenodd" clip-rule="evenodd"><path d="M0 31.298c.078-.412.154-.826.235-1.238.083-.418.075-.82-.055-1.238-.345-1.111.039-2.064.727-2.928a6.669 6.669 0 0 1 1.895-1.648c2.061-1.191 4.138-2.355 6.214-3.52 1.166-.656 2.451-1.016 3.706-1.451.201-.07.341-.344.267-.498-.059-.127-.105-.26-.179-.377-.897-1.436-1.512-3-2.087-4.58-.387-1.061-.609-2.148-.598-3.289.015-1.471-.006-2.943-.031-4.414-.021-1.23.331-2.354.926-3.406.852-1.504 2.162-2.346 3.864-2.594a10.825 10.825 0 0 1 3.144-.002c1.704.25 3.001 1.111 3.852 2.613.561.988.92 2.043.909 3.195-.018 1.822-.051 3.645-.061 5.467-.005.859-.243 1.664-.528 2.455-.594 1.648-1.275 3.26-2.216 4.75-.174.275-.063.574.22.68.13.049.254.123.388.156 1.862.439 3.546 1.291 5.186 2.244 1.272.738 2.547 1.469 3.817 2.211.911.533 1.771 1.129 2.453 1.955.553.672.888 1.41.854 2.307-.039 1.049-.038 2.1-.054 3.15H0z"/><path d="M32.201 19.251c.193.096.366.211.558.27 1.217.363 2.346.916 3.436 1.561.725.428 1.467.824 2.197 1.242.612.35 1.17.766 1.594 1.346.573.785.539 1.787-.106 2.512-.237.268-.524.465-.884.529-.975.18-1.954.164-2.93.037-.19-.023-.43-.139-.532-.291-.983-1.445-2.418-2.303-3.914-3.104-.927-.494-1.807-1.076-2.717-1.602-.907-.523-1.825-1.027-2.73-1.535.24-.611.787-.605 1.224-.787.178-.072.274-.355.19-.529a9.42 9.42 0 0 0-.186-.377c-1.7-3.266-1.477-3.719-1.563-7.074-.017-.643.143-1.262.392-1.842.405-.941 1.075-1.613 2.09-1.928 1.039-.322 2.053-.342 3.102-.029 1.02.305 1.718.941 2.134 1.881.283.639.474 1.318.451 2.039-.026.84-.031 1.682-.068 2.523-.051 1.141-.448 2.186-.886 3.225-.271.64-.765 1.181-.852 1.933z"/></g></svg>