<svg xmlns="http://www.w3.org/2000/svg" width="64" height="64" viewBox="0 0 40.896 39.418"><path d="M20.509 17.43c5.042 0 10.083-.006 15.125.005.936.002 1.869.063 2.803.116.406.022.829.509.867.954.031.349.08.7.08 1.049.008 5.159.015 10.318-.002 15.477-.003.695-.046 1.418-.236 2.08-.352 1.208-1.144 2.054-2.461 2.204-.813.092-1.638.099-2.457.1-9.263.006-18.524.005-27.786.001-.704 0-1.409-.006-2.109-.068-1.478-.13-2.631-1.273-2.765-2.713a14.962 14.962 0 0 1-.062-1.405c-.005-5.158-.005-10.317.002-15.476.001-.466.062-.933.104-1.399.038-.41.497-.824.964-.845a57.481 57.481 0 0 1 2.457-.076c5.156-.007 10.316-.004 15.476-.004zm6.184 7.15c0-.926.01-1.969-.007-3.01-.005-.374-.525-.862-.919-.917-.229-.032-.459-.091-.688-.091-3.144-.006-6.284-.018-9.427.005-1.269.009-1.484.547-1.499 1.47-.051 3.238-.341 3.241 3.19 3.226 2.56-.01 5.121-.007 7.682-.015.589-.001 1.164-.062 1.668-.668zm-6.372-10.379c-5.5 0-11 .003-16.499-.004a65.564 65.564 0 0 1-2.805-.083c-.444-.02-.942-.457-.952-.875-.04-1.632-.083-3.267-.059-4.898.007-.447.17-.937.396-1.327C1.584 4.997 2.809 3.002 4.02 1.002 4.417.348 5.021.05 5.771.031A68.62 68.62 0 0 1 7.526.003c8.542-.002 17.084-.005 25.626 0 3.512.002 2.92-.067 4.649 2.701.868 1.388 1.66 2.823 2.519 4.216.384.621.578 1.267.575 1.988-.012 1.287 0 2.574-.028 3.86-.02.877-.447 1.347-1.242 1.379-.936.039-1.871.051-2.807.052-5.5.005-10.998.002-16.497.002z" fill-rule="evenodd" clip-rule="evenodd"/></svg>