<svg xmlns="http://www.w3.org/2000/svg" width="64" height="64" viewBox="0 0 80.522 53.682"><g fill-rule="evenodd" clip-rule="evenodd"><path d="M41.538 53.682h-2.554c-.09-.017-.181-.043-.272-.048-2.939-.155-5.786-.771-8.561-1.733-4.587-1.59-8.74-3.982-12.613-6.876C10.801 39.989 5.113 33.934.198 27.13c-.059-.081-.132-.151-.198-.227v-.125c.037-.032.083-.06.11-.099 1.893-2.693 3.971-5.238 6.176-7.681 3.561-3.945 7.42-7.565 11.727-10.694 3.265-2.372 6.721-4.408 10.479-5.906C31.316 1.273 34.226.482 37.256.167c.576-.06 1.152-.111 1.729-.167h2.554c.091.017.181.043.272.048 2.941.155 5.789.774 8.566 1.735 4.58 1.586 8.727 3.978 12.594 6.865 6.743 5.035 12.436 11.096 17.354 17.902.059.081.132.152.197.228v.125c-.066.075-.14.146-.198.228-4.514 6.266-9.717 11.884-15.77 16.693-3.621 2.877-7.498 5.34-11.771 7.148-3.054 1.292-6.21 2.195-9.517 2.542-.575.061-1.151.112-1.728.168zM57.04 26.866c.022-9.21-7.466-16.762-16.652-16.793-9.341-.032-16.867 7.414-16.905 16.726-.038 9.23 7.464 16.782 16.699 16.81 9.304.028 16.836-7.452 16.858-16.743z"/><path d="M33.557 26.83c.006-3.705 3.016-6.711 6.714-6.703a6.71 6.71 0 0 1 6.693 6.725c-.006 3.706-3.016 6.712-6.714 6.703a6.712 6.712 0 0 1-6.693-6.725z"/></g></svg>