<svg xmlns="http://www.w3.org/2000/svg" width="64" height="64" viewBox="0 0 22.61 19.085"><path fill-rule="evenodd" clip-rule="evenodd" d="M11.172 19.084c-2.733 0-5.468.002-8.201 0-.42 0-.841-.002-1.261-.021a1.787 1.787 0 0 1-1.696-1.797c0-.141-.012-.281-.012-.42L0 11.377c0-.492.049-.971.235-1.439C1.458 6.883 2.667 3.82 3.879.762c.207-.523.606-.74 1.147-.746C5.656.01 6.287.002 6.918.002c3.154-.002 6.308-.004 9.463.004.487.002.979.027 1.461.1.181.025.394.18.494.338.188.291.313.625.446.949 1.094 2.654 2.171 5.314 3.282 7.963.358.855.564 1.713.544 2.648-.035 1.541.001 3.084-.021 4.625a4.66 4.66 0 0 1-.179 1.238c-.192.662-.689 1.057-1.358 1.16-.48.074-.978.055-1.468.055-2.803.004-5.606.002-8.41.002zM5.642 1.84c-.2.375-.352.613-.456.869-1.003 2.463-1.997 4.93-2.991 7.395-.052.129-.08.268-.113.404-.017.066-.017.137-.031.205-.032.156.172.465.33.469.909.023 1.818.037 2.728.061.489.012.982.008 1.466.072.181.023.41.186.493.35.315.621.645 1.25.849 1.912.3.975.902 1.287 1.883 1.227 1.188-.074 2.381-.025 3.571-.039.389-.004.676-.236.825-.557.326-.695.623-1.408.889-2.131.23-.625.672-.84 1.296-.832.771.01 1.541.006 2.311-.008.348-.008.694-.053 1.04-.086.162-.016.358-.318.301-.475a3086.522 3086.522 0 0 0-3.109-8.471c-.045-.119-.173-.209-.263-.313-.134-.037-.268-.105-.402-.105-3.222-.016-6.442-.025-9.665-.029-.279 0-.555.047-.952.082z"/></svg>