<svg xmlns="http://www.w3.org/2000/svg" width="64" height="64" viewBox="0 0 40.201 38.304"><path fill-rule="evenodd" clip-rule="evenodd" d="M24.165 23.502c3.067.695 5.747 2.048 8.323 3.644 1.072.664 2.177 1.278 3.279 1.891.985.547 1.927 1.151 2.74 1.938.663.643 1.2 1.367 1.496 2.257.183.547.295 1.118.08 1.647-.281.691-.216 1.37-.134 2.069.032.275.089.564.04.83-.032.174-.214.424-.363.451-.409.078-.837.07-1.258.07-2.525.006-5.052.004-7.579.004-9.333 0-18.666 0-27.999-.002-.701-.002-1.402-.027-2.104-.051-.197-.006-.504-.381-.499-.594.006-.211.011-.422.03-.631.063-.699.081-1.378-.117-2.081-.26-.92.012-1.802.473-2.621a6.027 6.027 0 0 1 1.664-1.879 24.09 24.09 0 0 1 2.105-1.385c1.266-.752 2.568-1.442 3.827-2.204 2.292-1.386 4.677-2.548 7.279-3.229.547-.144.623-.373.271-.907-1.245-1.893-2.023-3.996-2.804-6.101a7.878 7.878 0 0 1-.506-2.462c-.075-2.103-.154-4.206-.19-6.311-.02-1.129.205-2.224.607-3.291.891-2.358 2.536-3.842 5.009-4.328 1.738-.342 3.484-.324 5.2.215 1.542.485 2.729 1.417 3.544 2.806.646 1.101 1.078 2.28 1.161 3.568.022.35.06.701.053 1.051-.037 2.034-.095 4.068-.126 6.103-.014.925-.208 1.813-.518 2.673-.712 1.981-1.483 3.938-2.604 5.735-.181.299-.408.575-.38 1.125z"/></svg>