<svg xmlns="http://www.w3.org/2000/svg" width="64" height="64" viewBox="0 0 29.42 30.9"><g fill-rule="evenodd" clip-rule="evenodd"><path d="M22.406 10.079h1.634c1.557 0 3.114-.002 4.671.001.667.001.805.178.651.833-1.411 5.987-2.821 11.975-4.237 17.96-.305 1.288-1.254 2.027-2.565 2.027H6.847c-1.269 0-2.242-.737-2.532-1.962C2.883 22.897 1.461 16.855.037 10.813c-.118-.499.036-.727.523-.729 2.095-.009 4.19-.004 6.285-.001.067 0 .135.021.248.039 0 .516-.008 1.022.002 1.527.026 1.307.848 2.326 2.054 2.562 1.357.265 2.73-.738 2.891-2.147.063-.546.043-1.102.054-1.653.004-.187.02-.332.267-.332 1.655.005 3.309.002 5.037.002 0 .493-.005.954.001 1.415.015.995.354 1.835 1.226 2.379 1.636 1.021 3.688-.133 3.777-2.122.024-.534.004-1.07.004-1.674z"/><path d="M8.338 8.886c.043-1.116.013-2.24.144-3.345.348-2.927 2.941-5.364 5.8-5.53 3.071-.179 5.828 1.808 6.581 4.785.155.611.235 1.254.249 1.884.034 1.613.014 3.227.011 4.84-.001.834-.493 1.397-1.208 1.398-.718.001-1.223-.559-1.227-1.389-.008-1.67.01-3.34-.01-5.01a4.076 4.076 0 0 0-3.128-3.904c-1.827-.433-3.897.741-4.467 2.578a5.97 5.97 0 0 0-.256 1.621c-.034 1.513-.01 3.028-.014 4.542 0 .183-.009.369-.043.548-.123.644-.64 1.05-1.269 1.009a1.192 1.192 0 0 1-1.112-1.181c-.019-.948-.005-1.896-.005-2.844l-.046-.002z"/></g></svg>