<svg xmlns="http://www.w3.org/2000/svg" width="64" height="64" viewBox="0 0 20.543 24.578"><path d="M0 18.528c.048-.029.06-.078.067-.129.041-.248.142-.475.258-.695.212-.404.485-.768.778-1.117.264-.314.542-.617.843-.898.782-.729 1.286-1.621 1.596-2.635a10.44 10.44 0 0 0 .347-1.66c.131-1.002.157-2.01.156-3.018 0-.848-.005-1.693-.01-2.539a3.409 3.409 0 0 1 .17-1.121c.179-.531.489-.977.904-1.35.417-.373.896-.646 1.41-.863a8.672 8.672 0 0 1 1.604-.486c.042-.008.082-.021.12-.031C8.363.624 9.426-.017 10.33 0c.926.018 1.913.697 2.013 1.98.038.012.077.025.118.035a8.285 8.285 0 0 1 1.775.559c.439.199.85.443 1.213.762.546.48.907 1.068 1.045 1.787.04.209.061.418.06.631-.004.467-.005.934-.005 1.4 0 .68-.005 1.357.005 2.035.01.748.054 1.494.152 2.234.097.723.25 1.434.513 2.117a5.684 5.684 0 0 0 1.396 2.117c.47.445.904.926 1.283 1.453.185.26.352.529.479.82.067.154.124.313.148.48.011.066.017.135.017.203-.002.336-.009.672-.009 1.008.001.402-.179.662-.563.779a1.819 1.819 0 0 1-.347.066c-.105.01-.212.006-.317.006H1.284c-.187 0-.374.01-.557-.041-.066-.018-.134-.033-.196-.061-.312-.127-.475-.375-.474-.713l.004-.857c0-.063.008-.129-.063-.164.002-.034.002-.071.002-.108zm13.502 3.006a2.04 2.04 0 0 1-.035.473c-.164.895-.645 1.58-1.407 2.064a3.319 3.319 0 0 1-3.954-.32 2.99 2.99 0 0 1-.995-1.83 1.519 1.519 0 0 1-.015-.395c.047-.004.082-.01.118-.012.974-.023 6.084-.01 6.288.02z" fill-rule="evenodd" clip-rule="evenodd"/></svg>