<svg xmlns="http://www.w3.org/2000/svg" width="64" height="64" viewBox="0 0 34.522 36.204"><path d="M17.411 6.877H28.35c.562.002 1.123 0 1.683.018.79.027 1.03.254 1.054.977.014.42.012.842.012 1.262 0 7.152 0 14.307-.002 21.459 0 .561-.019 1.121-.032 1.684-.02.783-.225 1.531-.545 2.232-.438.961-1.21 1.533-2.272 1.646-.486.053-.979.047-1.47.047-5.751.004-11.501.002-17.252.002-.42 0-.842.004-1.261-.023-2.16-.145-4.015-1.662-4.555-3.754-.14-.539-.187-1.104-.251-1.658-.032-.275-.01-.561-.01-.84 0-7.014-.004-14.025.002-21.039.001-1.992.013-2.004 1.968-2.008 3.998-.01 7.995-.005 11.992-.005zM8.701 20.77c0 2.797-.004 5.596.004 8.395.002.486.027.979.095 1.459a.447.447 0 0 0 .412.402c.875.098 1.167-.133 1.196-.98.008-.211.01-.42.01-.631 0-5.805.001-11.611-.003-17.418 0-.348-.021-.699-.063-1.045-.017-.125-.112-.256-.201-.357-.175-.197-1.021-.229-1.188-.043-.09.1-.187.234-.195.357a25.367 25.367 0 0 0-.063 1.676c-.007 2.728-.004 5.457-.004 8.185zm6.851.049c0-2.73.003-5.463-.002-8.193a26.816 26.816 0 0 0-.056-1.678c-.008-.125-.099-.26-.184-.365-.151-.189-.987-.225-1.195-.043a.728.728 0 0 0-.216.35 2.743 2.743 0 0 0-.059.627c-.003 6.162-.002 12.324.002 18.486 0 .207.012.428.08.621.066.186.179.381.433.393.139.008.277.039.415.037.432-.008.706-.221.728-.574.026-.42.051-.838.052-1.258.004-2.802.002-5.602.002-8.403zm10.401.002c0-2.727.004-5.451-.002-8.178-.002-.559-.034-1.115-.061-1.674-.01-.197-.349-.514-.578-.525-.205-.01-.42 0-.618.049-.116.029-.274.139-.3.24-.083.332-.156.676-.157 1.016-.009 5.939-.009 11.881-.004 17.82 0 .348.053.695.092 1.041.024.217.345.439.621.447.647.016.96-.229.982-.803a46.88 46.88 0 0 0 .024-1.678c.003-2.583.002-5.169.001-7.755zm-6.968-.211c0 2.797-.003 5.594.002 8.389.002.488.027.979.065 1.465.01.127.097.256.172.369.152.227.952.32 1.169.127.1-.09.197-.221.218-.346.056-.344.097-.693.097-1.039.006-5.943.004-11.887 0-17.83 0-.277-.035-.557-.062-.834-.021-.227-.317-.459-.599-.479-.77-.055-.984.256-1.025.74-.035.416-.035.838-.036 1.258-.003 2.725-.001 5.453-.001 8.18zM17.209 5.135c-4.979 0-9.959.002-14.938-.004-.559 0-1.118-.037-1.677-.068-.265-.016-.532-.289-.547-.541C.028 4.174.002 3.823 0 3.473c-.007-1.732.007-1.752 1.746-1.758 2.385-.01 4.77 0 7.153-.008.35-.001.703-.025 1.045-.087a.495.495 0 0 0 .413-.41c.035-.207.054-.416.102-.621.085-.355.253-.521.543-.543.279-.02.56-.043.839-.043C15.487-.001 19.134 0 22.781 0c.21 0 .421.008.631.02.406.02.623.189.748.592.041.135.049.277.087.412.14.486.292.645.662.658.491.018.981.027 1.471.027 2.104.004 4.208 0 6.312.006.42 0 .841.027 1.26.053.25.016.509.293.522.566.025.49.051.98.048 1.469-.008 1.193-.12 1.32-1.323 1.324-3.927.012-7.854.006-11.782.008h-4.208z" fill-rule="evenodd" clip-rule="evenodd"/></svg>