<svg xmlns="http://www.w3.org/2000/svg" width="64" height="64" viewBox="0 0 62.431 33.888"><path fill-rule="evenodd" clip-rule="evenodd" d="M0 17.777v-1.668c.011-.061.023-.121.031-.183.115-.876.168-1.765.354-2.624C1.416 8.555 3.945 4.83 8.088 2.253 9.995 1.066 12.083.361 14.318.107c.345-.039.689-.071 1.034-.107h1.517c.068.011.135.028.204.032 1.892.112 3.709.544 5.42 1.355 4.767 2.261 7.746 6.016 9.151 11.063.056.201.129.26.336.26 10.068-.005 20.137-.005 30.205-.005.082 0 .164-.004.246-.007v8.491c-.038-.003-.076-.007-.113-.007h-7.77c-.05 0-.1.005-.177.01v8.445H46.32v-8.455h-.258c-4.693 0-9.387.001-14.081-.005-.205 0-.282.055-.338.258-1.177 4.334-3.607 7.759-7.431 10.15a14.95 14.95 0 0 1-6.312 2.193c-.344.04-.688.072-1.033.108H15.35c-.061-.011-.123-.028-.184-.031a14.902 14.902 0 0 1-4.534-.976c-3.274-1.265-5.853-3.397-7.782-6.316-1.541-2.332-2.442-4.9-2.743-7.679-.038-.367-.071-.737-.107-1.107zm26.58-.152c0-2.97-.628-5.14-1.898-7.001-1.869-2.738-4.438-4.358-7.763-4.655-2.374-.212-4.571.382-6.521 1.754-2.859 2.012-4.401 4.807-4.711 8.272-.219 2.449.295 4.757 1.592 6.852 1.847 2.981 4.503 4.747 8.025 5.07 2.373.218 4.574-.377 6.521-1.753 3.172-2.241 4.652-5.38 4.755-8.539z"/></svg>