<svg xmlns="http://www.w3.org/2000/svg" width="64" height="64" viewBox="0 0 19.652 19.685"><path fill-rule="evenodd" clip-rule="evenodd" d="M.002 11.884c0-1.965-.006-3.928.006-5.893.002-.345.039-.704.142-1.031.052-.168.264-.338.441-.402.256-.092.545-.117.821-.125.701-.021 1.403-.004 2.104-.031.556-.022.832-.152.873-.928.022-.42.017-.842.024-1.264.007-.349.004-.701.023-1.05C4.48.382 4.825.015 5.634.011 9.914-.004 14.192 0 18.471.005c.206 0 .412.07.617.115.2.043.561.391.562.574.005 1.26.002 2.518-.009 3.777-.002.201-.334.518-.581.535-.485.035-.974.057-1.459.043-.479-.014-.781-.248-.803-.77-.006-.133-.07-.268-.123-.393-.022-.053-.1-.133-.129-.123-.123.037-.291.072-.343.164-.1.176-.144.387-.188.588-.07.311-.266.492-.566.529a3.72 3.72 0 0 1-.837.021c-.37-.037-.655-.199-.717-.625-.028-.201-.116-.395-.193-.586-.015-.034-.102-.06-.157-.06-.067 0-.176.012-.196.053a2.653 2.653 0 0 0-.231.574c-.151.641-.454.641-.896.676-.139.01-.28.002-.42-.006-.532-.029-.669-.148-.838-.73-.038-.133-.056-.273-.101-.404-.021-.063-.09-.164-.122-.158-.119.02-.289.045-.335.127-.102.178-.149.389-.199.592-.101.402-.381.559-.764.586a3.444 3.444 0 0 1-.419.011c-.638-.02-.763-.125-1.002-.817-.045-.129-.086-.26-.146-.381-.03-.058-.095-.125-.154-.134-.049-.008-.137.045-.163.093-.093.182-.196.366-.245.559-.119.484-.43.684-.907.699-.278.008-.571.01-.827.1-.175.06-.323.252-.432.418-.069.105-.05.271-.064.41-.039.344-.002.697-.214 1.01-.228.334-.662.17-.931.408-.117.105-.159.213-.028.344.092.09.217.182.339.203.577.094.824.406.827 1.002.005.723-.158 1.25-1.006 1.299-.068.004-.143.186-.182.297-.014.037.063.137.118.16.19.08.393.133.586.207.291.111.432.342.46.639.02.209.021.42.017.631-.01.465-.174.813-.694.887-.133.02-.264.078-.385.139-.056.029-.132.129-.118.162.047.109.11.26.204.293.317.113.731.066.887.451.189.467.183.959.016 1.436a.583.583 0 0 1-.268.295c-.184.096-.404.119-.588.213-.109.057-.235.186-.246.291-.008.082.15.254.242.26.699.043 1.006.41.97 1.092-.022.42-.039.838-.075 1.256-.021.244-.314.527-.562.553a17.616 17.616 0 0 1-3.772-.008c-.235-.025-.547-.322-.576-.551-.045-.346-.097-.693-.098-1.041-.01-2.037-.006-4.071-.005-6.106z"/></svg>