<svg xmlns="http://www.w3.org/2000/svg" width="64" height="64" viewBox="0 0 39.738 29.203"><path d="M38.041 29.203H36.98c-.846-.274-1.722-.481-2.533-.835-2.158-.942-4.022-2.348-5.791-3.876-3.079-2.664-5.434-5.838-6.684-9.75-1.075-3.363-.882-6.654.813-9.782C24.15 2.441 26.186.751 29.054.179c.376-.076.76-.119 1.14-.178h.989c.112.023.223.055.336.068 3.066.348 5.454 1.785 6.874 4.55 1.531 2.979 1.166 5.939-.511 8.746-1.224 2.045-2.99 3.316-5.469 3.423a5.383 5.383 0 0 0-1.412.279c-.581.192-.816.602-.667 1.185.104.414.287.826.521 1.18.631.955 1.483 1.712 2.413 2.358 1.45 1.003 2.944 1.943 4.417 2.915.87.572 1.69 1.196 2.053 2.237v.707c-.21.698-.587 1.24-1.335 1.441-.121.031-.24.073-.362.113zM0 11.596V9.828c.022-.076.056-.15.063-.227.153-1.647.606-3.208 1.411-4.656C2.798 2.567 4.697.896 7.396.25 7.87.138 8.358.082 8.839 0H9.9c.297.046.594.087.891.141 3.107.572 5.416 2.215 6.605 5.181 1.187 2.962.661 5.791-1.064 8.4-1.222 1.848-2.923 2.964-5.209 3.062a5.406 5.406 0 0 0-1.381.264c-.66.21-.902.66-.7 1.317.126.409.326.81.567 1.163.575.846 1.328 1.538 2.16 2.117 1.498 1.04 3.051 2 4.549 3.041.603.418 1.184.901 1.668 1.45.827.936.48 2.686-1.074 3-.053.01-.102.045-.153.069h-1.13c-.041-.022-.077-.049-.12-.063-.825-.268-1.697-.438-2.467-.816-3.51-1.716-6.481-4.13-8.915-7.185C2.319 18.87.963 16.358.328 13.498.187 12.87.107 12.229 0 11.596z" fill-rule="evenodd" clip-rule="evenodd"/></svg>