<svg xmlns="http://www.w3.org/2000/svg" width="64" height="64" viewBox="0 0 33.3 31.737"><path fill-rule="evenodd" clip-rule="evenodd" d="M0 11.87c.138-.761.232-1.534.422-2.281C1.69 4.614 5.897.859 10.978.139c6.828-.968 13.016 3.233 14.534 9.928.718 3.169.188 6.183-1.431 9.002l-.191.331c-.006.011-.004.028.006-.055 1.052 1.022 2.066 1.999 3.07 2.986 1.887 1.858 3.771 3.717 5.646 5.586.634.632.846 1.404.566 2.262-.278.852-.89 1.364-1.773 1.521-.817.146-1.495-.141-2.076-.716-1.991-1.974-3.987-3.942-5.981-5.913-.373-.368-.749-.733-1.117-1.105-.416-.42-.824-.848-1.256-1.294a13.362 13.362 0 0 1-3.418 1.938A12.91 12.91 0 0 1 .208 14.945c-.082-.428-.139-.861-.208-1.291V11.87zm3.97.857c.001 4.882 3.991 8.848 8.927 8.835 5-.013 8.943-3.829 8.956-8.867.012-4.863-4.03-8.823-8.956-8.816-4.926.008-8.928 3.974-8.927 8.848z"/></svg>