<svg xmlns="http://www.w3.org/2000/svg" width="64" height="64" viewBox="0 0 39.28 39.303"><g fill-rule="evenodd" clip-rule="evenodd"><path d="M.002 19.734C-.156 8.816 8.975.018 19.594 0 30.103-.016 39.173 8.592 39.28 19.463c.104 10.822-8.742 19.766-19.519 19.84C8.858 39.377-.085 30.398.002 19.734zm19.689-15.82C11.064 3.898 4.004 10.826 3.89 19.477c-.108 8.17 6.303 15.838 15.665 15.896 8.795.057 15.822-6.908 15.791-15.76-.032-9.224-7.505-15.664-15.655-15.699z"/><path d="M17.822 15.09c0-2.1-.001-4.201.001-6.301.001-.279.012-.559.026-.838.021-.41.26-.711.611-.721a59.087 59.087 0 0 1 2.306-.004c.335.004.623.334.637.707.022.629.037 1.258.038 1.887.004 2.592-.001 5.182.006 7.771.001.49.036.979.065 1.467.015.244.297.49.571.508.418.023.837.051 1.257.053 1.75.006 3.5-.002 5.251.008a8.04 8.04 0 0 1 1.25.098c.188.031.397.156.435.396.138.904.159 1.809-.025 2.707-.022.113-.165.227-.278.289a.876.876 0 0 1-.404.094c-3.641.004-7.281.004-10.921 0-.068 0-.137-.025-.206-.033-.262-.025-.542-.281-.556-.531-.027-.488-.06-.977-.062-1.465-.007-2.032-.003-4.061-.002-6.092z"/></g></svg>