<svg xmlns="http://www.w3.org/2000/svg" width="64" height="64" viewBox="0 0 20.543 24.579"><path d="M0 18.528c.048-.029.06-.079.067-.128.041-.249.142-.476.258-.697a6.32 6.32 0 0 1 .778-1.116c.264-.315.542-.618.843-.898.782-.729 1.286-1.622 1.596-2.635.165-.542.272-1.098.347-1.66.131-1.002.157-2.01.156-3.019 0-.847-.005-1.693-.01-2.54a3.407 3.407 0 0 1 .17-1.12c.179-.531.489-.975.904-1.348.417-.374.897-.647 1.411-.864a8.593 8.593 0 0 1 1.604-.485c.042-.009.082-.022.12-.033C8.363.624 9.426-.017 10.33 0c.926.018 1.913.698 2.013 1.981.038.011.077.026.118.035.611.127 1.207.3 1.775.559.439.2.85.444 1.213.763.546.479.907 1.068 1.045 1.787.04.208.061.418.06.631-.004.467-.005.934-.005 1.4 0 .679-.005 1.357.005 2.036.01.747.054 1.493.152 2.234.097.723.25 1.433.513 2.117a5.68 5.68 0 0 0 1.396 2.116c.47.446.904.926 1.283 1.455.185.259.352.528.479.82.067.154.124.313.148.479.011.067.017.136.017.204-.002.336-.009.672-.009 1.008.001.402-.179.661-.563.779a1.742 1.742 0 0 1-.347.064c-.105.011-.212.006-.317.006H1.284c-.187 0-.374.01-.557-.04-.066-.018-.134-.034-.196-.06-.31-.127-.473-.374-.472-.712l.004-.859c0-.062.008-.127-.063-.163v-.112zm13.502 3.006c.009.166-.008.32-.035.472-.164.896-.645 1.581-1.407 2.065a3.317 3.317 0 0 1-3.954-.319 2.995 2.995 0 0 1-.995-1.83 1.52 1.52 0 0 1-.015-.395c.047-.005.082-.011.118-.012.974-.024 6.084-.011 6.288.019z" fill-rule="evenodd" clip-rule="evenodd"/><path d="M0 18.528c.048-.029.06-.079.067-.128.041-.249.142-.476.258-.697a6.32 6.32 0 0 1 .778-1.116c.264-.315.542-.618.843-.898.782-.729 1.286-1.622 1.596-2.635.165-.542.272-1.098.347-1.66.131-1.002.157-2.01.156-3.019 0-.847-.005-1.693-.01-2.54a3.407 3.407 0 0 1 .17-1.12c.179-.531.489-.975.904-1.348.417-.374.897-.647 1.411-.864a8.593 8.593 0 0 1 1.604-.485c.042-.009.082-.022.12-.033C8.363.624 9.426-.017 10.33 0c.926.018 1.913.698 2.013 1.981.038.011.077.026.118.035.611.127 1.207.3 1.775.559.439.2.85.444 1.213.763.546.479.907 1.068 1.045 1.787.04.208.061.418.06.631-.004.467-.005.934-.005 1.4 0 .679-.005 1.357.005 2.036.01.747.054 1.493.152 2.234.097.723.25 1.433.513 2.117a5.68 5.68 0 0 0 1.396 2.116c.47.446.904.926 1.283 1.455.185.259.352.528.479.82.067.154.124.313.148.479.011.067.017.136.017.204-.002.336-.009.672-.009 1.008.001.402-.179.661-.563.779a1.742 1.742 0 0 1-.347.064c-.105.011-.212.006-.317.006H1.284c-.187 0-.374.01-.557-.04-.066-.018-.134-.034-.196-.06-.31-.127-.473-.374-.472-.712l.004-.859c0-.062.008-.127-.063-.163v-.112zm13.502 3.006c.009.166-.008.32-.035.472-.164.896-.645 1.581-1.407 2.065a3.317 3.317 0 0 1-3.954-.319 2.995 2.995 0 0 1-.995-1.83 1.52 1.52 0 0 1-.015-.395c.047-.005.082-.011.118-.012.974-.024 6.084-.011 6.288.019z" fill-rule="evenodd" clip-rule="evenodd"/><path d="M0 18.528c.048-.029.06-.079.067-.128.041-.249.142-.476.258-.697a6.32 6.32 0 0 1 .778-1.116c.264-.315.542-.618.843-.898.782-.729 1.286-1.622 1.596-2.635.165-.542.272-1.098.347-1.66.131-1.002.157-2.01.156-3.019 0-.847-.005-1.693-.01-2.54a3.407 3.407 0 0 1 .17-1.12c.179-.531.489-.975.904-1.348.417-.374.897-.647 1.411-.864a8.593 8.593 0 0 1 1.604-.485c.042-.009.082-.022.12-.033C8.363.624 9.426-.017 10.33 0c.926.018 1.913.698 2.013 1.981.038.011.077.026.118.035.611.127 1.207.3 1.775.559.439.2.85.444 1.213.763.546.479.907 1.068 1.045 1.787.04.208.061.418.06.631-.004.467-.005.934-.005 1.4 0 .679-.005 1.357.005 2.036.01.747.054 1.493.152 2.234.097.723.25 1.433.513 2.117a5.68 5.68 0 0 0 1.396 2.116c.47.446.904.926 1.283 1.455.185.259.352.528.479.82.067.154.124.313.148.479.011.067.017.136.017.204-.002.336-.009.672-.009 1.008.001.402-.179.661-.563.779a1.742 1.742 0 0 1-.347.064c-.105.011-.212.006-.317.006H1.284c-.187 0-.374.01-.557-.04-.066-.018-.134-.034-.196-.06-.31-.127-.473-.374-.472-.712l.004-.859c0-.062.008-.127-.063-.163v-.112zm13.502 3.006c.009.166-.008.32-.035.472-.164.896-.645 1.581-1.407 2.065a3.317 3.317 0 0 1-3.954-.319 2.995 2.995 0 0 1-.995-1.83 1.52 1.52 0 0 1-.015-.395c.047-.005.082-.011.118-.012.974-.024 6.084-.011 6.288.019z" fill-rule="evenodd" clip-rule="evenodd"/></svg>