<svg xmlns="http://www.w3.org/2000/svg" width="64" height="64" viewBox="0 0 28.511 32.049"><path fill-rule="evenodd" clip-rule="evenodd" d="M10.54 0c1.163.434 1.793 1.366 2.262 2.44.845 1.94 1.193 4.005 1.459 6.084.082.647.098 1.305.109 1.959.014.788-.06 1.563-.59 2.31.937-.079 1.875-.142 2.81-.239 2.621-.271 5.239-.563 7.859-.832 1.084-.11 2.08.761 2.394 2.05.335 1.377-.126 2.411-1.513 3.245.338 0 .592-.007.846.001 1.546.049 2.667 1.493 2.248 2.892-.17.567-.547.975-1.061 1.23-.447.223-.93.375-1.415.566 1.413.699 2.349 1.711 1.959 3.438-.258 1.144-.959 1.666-2.48 1.905.144.105.253.188.363.267 1.301.938 1.26 2.565-.154 3.327-.613.33-1.354.431-2.045.605-.215.055-.457.019-.686.008-2.595-.126-5.161.138-7.72.542-.756.119-1.522.168-2.285.249h-2.851c-.241-.034-.48-.074-.722-.102-.763-.089-1.533-.139-2.289-.267a73.671 73.671 0 0 1-3.319-.653C2.5 30.76 1.281 30.629.03 30.961c-.01-.164-.021-.261-.021-.357-.001-4.009.003-8.02-.009-12.031-.001-.359.145-.547.449-.664.763-.293 1.53-.573 2.285-.885.232-.096.493-.233.632-.428.833-1.173 1.675-2.344 2.438-3.563 1.094-1.75 2.149-3.552 2.519-5.606.381-2.122.582-4.277.848-6.419.058-.466.1-.91.681-1.008h.688z"/></svg>