<svg xmlns="http://www.w3.org/2000/svg" width="64" height="64" viewBox="0 0 27.814 24.533"><path d="M27.813 13.32c0 2.174.002 4.35-.003 6.525a8.13 8.13 0 0 1-.064 1.047c-.04.293-.228.535-.508.613-1.282.357-2.572.691-3.858 1.033-2.234.592-4.469 1.191-6.706 1.773-.401.104-.821.145-1.235.201-.182.025-.41-.186-.427-.375-.024-.279-.061-.557-.061-.836-.004-4.42-.004-8.84-.001-13.26 0-.279.02-.561.053-.838.035-.305.229-.5.508-.604.197-.072.403-.119.605-.176 3.443-.953 6.887-1.908 10.33-2.859.271-.074.547-.127.821-.184.131-.029.43.219.446.375.038.346.094.691.096 1.037.008 2.179.004 4.354.004 6.528zm-15.16-4.519c.048.256.141.525.142.795.01 4.699.008 9.398.006 14.098 0 .139-.023.279-.036.418-.021.23-.346.453-.614.418-.278-.037-.56-.061-.83-.127-3.331-.828-6.661-1.658-9.99-2.496-.27-.068-.529-.182-.789-.285a.734.734 0 0 1-.477-.631 10.216 10.216 0 0 1-.062-1.049C0 15.523-.003 11.104.008 6.686c.001-.412.084-.828.168-1.232.019-.089.199-.153.314-.208a.283.283 0 0 1 .202-.016c1.053.381 2.104.764 3.15 1.158.122.047.215.172.376.309.025.365.073.781.08 1.197.013.982-.003 1.965.01 2.947.016 1.18.478 1.629 1.807 1.777.06.008.126-.045.215-.08.188-.818.083-1.662.106-2.5.024-.839.033-1.681.054-2.52.004-.154.296-.35.471-.326.276.041.562.057.828.131 1.418.395 2.832.801 4.244 1.211.195.054.376.159.62.267zm14.32-5.176c-.192.178-.302.348-.453.404-.39.148-.796.248-1.198.359-3.292.91-6.589 1.807-9.875 2.736-1.04.295-2.048.316-3.078-.01-.928-.295-1.867-.553-2.801-.832-.158-.048-.193-.177-.108-.337.031-.057.074-.129.129-.15.258-.096.519-.188.783-.26 3.765-1.033 7.532-2.055 11.294-3.1.491-.137.943-.156 1.43 0 1.257.401 2.572.618 3.877 1.19zm-9.042-2.504c-.279.416-.686.514-1.095.625-2.702.723-5.401 1.455-8.102 2.182-1.148.31-2.293.627-3.445.918-.263.066-.566.117-.819.052A83.832 83.832 0 0 1 1.242 4c-.118-.033-.206-.176-.31-.27.105-.303.401-.32.637-.387C5.335 2.273 9.105 1.214 12.874.154c.688-.193 1.386-.219 2.067.004.99.324 2.045.463 2.99.963z" fill-rule="evenodd" clip-rule="evenodd"/></svg>