<svg xmlns="http://www.w3.org/2000/svg" width="64" height="64" viewBox="0 0 38.455 40.128"><path fill-rule="evenodd" clip-rule="evenodd" d="M21.236 14.5c.726.823 1.328 1.554 1.98 2.239 4.139 4.345 8.289 8.68 12.436 13.019.564.591 1.168 1.15 1.678 1.786 1.855 2.311 1.352 5.917-1.034 7.638-1.757 1.266-4.039 1.273-5.709-.049-.637-.503-1.19-1.117-1.754-1.707-3.96-4.14-7.913-8.285-11.866-12.431-.847-.887-1.685-1.783-2.579-2.731-1.126.04-2.202.064-3.276.118C4.117 22.734-.312 16.208.017 11.274c.014-.195.256-.486.439-.53.229-.055.589.019.752.179a183.71 183.71 0 0 1 4.024 4.067c.636.663 1.389.845 2.231.642a75.187 75.187 0 0 0 3.947-1.055c.646-.193 1.256-.509 1.895-.775 1.01-2.146 1.294-4.464 1.917-6.68.149-.532-.087-1.07-.481-1.495-1.391-1.498-2.789-2.986-4.154-4.505-.147-.165-.204-.552-.114-.75.083-.184.414-.343.646-.357 1.238-.077 2.422.134 3.588.612 3.841 1.574 7.027 5.515 6.903 11.085-.018.812-.211 1.62-.374 2.788zm13.688 19.707c-.015-1.068-1.013-2.122-2.053-2.169-1.07-.048-2.002.917-2.04 2.113-.037 1.195.833 2.123 1.984 2.116 1.104-.007 2.123-1.003 2.109-2.06z"/></svg>