<svg xmlns="http://www.w3.org/2000/svg" width="64" height="64" viewBox="0 0 36.215 32.049"><path fill-rule="evenodd" clip-rule="evenodd" d="M16.583 32.049c-.858-.099-1.728-.142-2.573-.31-1.648-.33-3.281-.734-4.922-1.099-.374-.083-.458-.293-.457-.662.012-6.566.009-13.133.009-19.699v-.674L3.951 12.62 0 5.253c.162-.106.305-.208.456-.299 1.793-1.083 3.625-2.105 5.366-3.266C7.106.833 8.443.236 9.973.075c.043-.004.081-.049.121-.075h2.851c-.054 2.681 1.478 4.57 4.237 5.225 2.257.536 4.45-.401 5.468-2.35.469-.898.703-1.86.716-2.875h3.244c.157.036.313.082.472.107.85.137 1.65.394 2.354.912.407.3.817.598 1.247.863 1.685 1.038 3.378 2.063 5.068 3.093.15.091.294.192.464.305L32.35 12.6l-4.679-2.992v.705c0 6.548-.004 13.097.01 19.645.001.4-.103.591-.499.668-1.875.366-3.742.769-5.621 1.117-.831.153-1.681.207-2.521.306h-2.457z"/></svg>