<svg xmlns="http://www.w3.org/2000/svg" width="64" height="64" viewBox="0 0 31.919 32.049"><path fill-rule="evenodd" clip-rule="evenodd" d="M31.919 14.943v2.163c-.065.418-.137.835-.193 1.254-.844 6.294-5.779 11.75-11.958 13.19-.919.215-1.861.334-2.792.498h-2.065c-.709-.109-1.426-.187-2.127-.334C4.427 29.965-1.017 22.19.16 13.701 1.063 7.188 6.099 1.77 12.547.395 13.328.228 14.123.13 14.912 0h2.065c.532.077 1.07.125 1.595.235 6.718 1.4 11.025 5.398 12.863 12.014.244.875.327 1.795.484 2.694zm-18.643-1.486c.024-.221.046-.429.07-.637.082-.739.402-1.341 1.027-1.763.839-.565 2.232-.445 2.812.239.591.697.533 2.005-.167 2.749-.333.354-.739.644-1.121.951-1.354 1.088-1.875 2.499-1.673 4.221h2.885c-.244-1.466.592-2.266 1.679-2.92.252-.151.493-.322.733-.494 2.353-1.683 2.362-5.042.015-6.736-.929-.67-1.98-.969-3.118-1.052-2.891-.209-5.143 1.481-5.708 4.333-.071.355-.077.724-.115 1.108l2.681.001zm3.972 10.568v-2.646H14.63v2.646h2.618z"/></svg>