<svg xmlns="http://www.w3.org/2000/svg" width="64" height="64" viewBox="0 0 51.227 40.285"><path fill-rule="evenodd" clip-rule="evenodd" d="M50.955 0c.084.266.214.526.239.797.044.487.029.979.029 1.47.002 9.739.002 19.479.001 29.218-.001 2.474.164 2.458-2.368 2.458-.487 0-.977.051-1.46.116-.108.015-.257.173-.279.286-.067.341-.084.692-.115 1.04-.037.417-.032.843-.122 1.248-.035.158-.263.345-.434.385a4.053 4.053 0 0 1-1.039.078c-2.102-.064-4.204-.101-6.302-.228-2.178-.132-4.342-.005-6.505.197a8.66 8.66 0 0 0-2.825.763c-.722.331-1.353.779-1.604 1.567-.238.75-.764.913-1.458.886-.699-.027-1.4-.012-2.102-.018-.473-.004-.806-.227-.949-.675-.331-1.038-1.128-1.595-2.079-1.922-.789-.271-1.614-.5-2.439-.59-2.159-.234-4.325-.341-6.504-.208-2.027.125-4.061.161-6.092.222-.417.013-.836-.028-1.253-.057-.239-.016-.495-.311-.514-.576a33.335 33.335 0 0 1-.049-.838c-.018-.349-.027-.699-.048-1.048-.016-.279-.257-.553-.508-.566-.628-.032-1.258-.08-1.887-.072a9.094 9.094 0 0 1-2.291-.244C0 22.459 0 11.23 0 0h5.475c.26.093.514.235.781.269.624.079 1.255.106 1.884.153 2.934.22 5.844.607 8.712 1.276 1.845.43 3.646.991 5.326 1.882 1.513.803 2.819 1.827 3.53 3.458.043.1.17.163.283.266.142-.162.32-.295.404-.474.69-1.464 1.878-2.408 3.247-3.174 1.167-.653 2.406-1.129 3.684-1.504 2.151-.63 4.347-1.047 6.571-1.334a76.273 76.273 0 0 1 5.224-.503c.42-.025.84-.063 1.202-.315h4.632zm-3.976 16.446c0-3.574.004-7.148-.003-10.722-.001-.629-.038-1.259-.067-1.888-.01-.2-.365-.523-.579-.521-1.12.008-2.242-.004-3.361.044-2.876.124-5.716.518-8.506 1.241-1.224.317-2.42.719-3.523 1.34-.605.342-1.187.746-1.722 1.19-.79.656-1.216 1.523-1.232 2.568-.006.42-.011.841-.011 1.261-.001 6.307-.004 12.613.004 18.92.002.627.061 1.255.124 1.879.01.09.204.228.313.227a1.54 1.54 0 0 0 .605-.142c2.394-1.07 4.942-1.563 7.516-1.856 2.503-.286 5.017-.545 7.546-.496.7.013 1.4-.02 2.101-.046.477-.018.74-.296.765-.808.023-.49.031-.98.031-1.471l-.001-10.72zM4.74 16.271c0 3.644-.003 7.289.004 10.933 0 .559.036 1.118.069 1.677.016.262.286.512.557.536.278.024.558.05.837.055 2.452.038 4.897.11 7.345.349 3.224.314 6.386.825 9.386 2.099.064.027.136.037.202.057.135.041.472-.16.483-.297.039-.486.104-.972.104-1.457.008-6.518.006-13.035.003-19.553 0-.49-.02-.98-.046-1.47-.036-.673-.369-1.188-.886-1.603-.663-.533-1.422-.896-2.201-1.214-1.363-.557-2.783-.949-4.212-1.293-3.204-.77-6.462-1.238-9.727-1.653-.416-.053-.839-.045-1.259-.058-.225-.006-.586.29-.597.491-.026.49-.058.98-.059 1.469-.005 3.644-.002 7.288-.003 10.932z"/></svg>