<svg xmlns="http://www.w3.org/2000/svg" width="64" height="64" viewBox="0 0 46.604 41.76"><path fill-rule="evenodd" clip-rule="evenodd" d="M28.54 33.721c.063 1.845.579 3.503.882 5.198.123.688.467 1.098 1.179 1.166.101.009.198.044.295.074.408.124.756.62.619.89-.188.379-.486.642-.933.669-.406.023-.813.04-1.218.041-4.068.002-8.136.005-12.203-.006-.504-.001-1.022-.022-1.501-.151-.241-.065-.447-.368-.606-.604-.123-.181.131-.669.372-.747.287-.094.596-.126.883-.221.403-.134.714-.391.809-.825.239-1.091.521-2.177.685-3.28.374-2.503.672-2.546-2.096-2.536-3.356.011-6.712.002-10.069.001-.71 0-1.424-.009-2.134-.02-1.089-.016-1.942-.515-2.654-1.303-.417-.464-.72-.99-.763-1.624a31.59 31.59 0 0 1-.082-2.131C-.002 20.583 0 12.854 0 5.125.001 4.617.019 4.108.022 3.6.042 1.625 1.462.42 3.21.074c.198-.039.403-.052.605-.058.406-.012.813-.015 1.22-.015h36.614c.506 0 1.018-.008 1.522.039a3.837 3.837 0 0 1 2.435 1.142c.502.512.901 1.107.941 1.866.026.507.055 1.016.055 1.523.003 8.136.002 16.272 0 24.408 0 .407-.024.813-.038 1.219-.053 1.604-1.65 2.932-2.917 3.1-.702.094-1.42.085-2.13.086-3.56.008-7.119-.001-10.678.01-.702.003-1.424-.106-2.299.327zm-5.211-3.706c5.582 0 11.164.005 16.746-.005.808-.002 1.616-.064 2.424-.12.346-.024.745-.467.78-.822.031-.303.071-.605.071-.908.002-7.714.001-15.428-.006-23.142 0-.302-.003-.628-.11-.9-.104-.264-.286-.546-.643-.572-.604-.042-1.209-.11-1.814-.112-2.74-.013-5.48-.006-8.221-.006-8.628 0-17.254-.004-25.882.005-.908.002-1.821.046-2.723.153-.222.026-.523.354-.579.592-.114.485-.113 1.005-.113 1.51-.005 7.307-.005 14.615-.001 21.923 0 .507.042 1.013.079 1.519.025.334.457.759.818.778.91.048 1.82.102 2.731.104 5.481.008 10.961.003 16.443.003z"/></svg>