<svg xmlns="http://www.w3.org/2000/svg" width="64" height="64" viewBox="0 0 26.994 26.151"><path d="M26.994 0v5.806c-.178 0-.326-.009-.473.002-.151.011-.347-.081-.416.166-.008.03-.125.044-.19.044-1.874.002-3.747.001-5.62 0-.039 0-.078-.011-.127-.018-.012-.038-.034-.074-.034-.11 0-1.963.003-3.927.006-5.89h6.854zM20.14 26.151l-.007-5.89c0-.028.013-.057.032-.13h.34c1.753 0 3.507-.001 5.26.003.152 0 .35-.079.413.173.007.027.126.035.193.037.198.005.396.002.624.002v5.805H20.14zM16.172 0c.003 1.86.008 3.721.003 5.582 0 .14-.075.28-.115.423h-5.997V5.64L10.062.358c0-.119-.015-.238-.022-.357L16.172 0zM10.04 26.151c.007-.119.022-.238.022-.357l.001-5.281v-.365h5.99c.04.131.121.276.121.423.006 1.86 0 3.721-.002 5.581l-6.132-.001zM0 10.04c.119.009.238.024.356.024 1.751.002 3.503.002 5.254.002h.38v6.024h-.349l-5.284.001c-.119 0-.239.013-.358.021L0 10.04zM6.012 0v6.012H0V0h6.012zM0 20.14h6.012v6.012H0V20.14zm20.153-10.014h6.807v5.814c-.005.004-.02.024-.036.026-2.217.234-4.44.082-6.661.121-.028 0-.057-.013-.11-.026v-5.935zm-7.09 5.965c-.902 0-1.803-.009-2.705.006-.246.004-.301-.079-.3-.31.008-1.803.009-3.606-.001-5.409-.001-.255.079-.318.324-.316 1.803.009 3.606.008 5.409.001.277-.001.395.092.394.383a614.605 614.605 0 0 0 0 5.259c.001.28-.1.394-.386.391-.912-.012-1.823-.005-2.735-.005z" fill-rule="evenodd" clip-rule="evenodd"/></svg>