<svg xmlns="http://www.w3.org/2000/svg" width="64" height="64" viewBox="0 0 30.817 32.035"><path fill-rule="evenodd" clip-rule="evenodd" d="M30.817 15.795c-.111 5.09-1.845 9.316-5.616 12.497-4.45 3.754-9.54 4.75-15.047 2.688-4.446-1.663-7.434-4.876-9.069-9.303-1.667-4.514-1.426-9.002.824-13.237C4.749 3.094 9.259.161 15.376.004c3.347-.085 6.388 1 9.042 3.042 4.23 3.258 6.229 7.642 6.399 12.749zm-11.348-3.46c.435.119.482.455.409.859-.068.376-.124.754-.18 1.132-.041.279-.177.455-.459.545a.475.475 0 0 0-.272.291c-.185.793-.57 1.472-1.106 2.075-.093.104-.213.207-.255.332-.22.65.213 1.709.833 2.018.874.436 1.76.845 2.636 1.274.558.273 1.126.532 1.657.852 1.032.623 1.625 1.515 1.555 2.769-.004.075.015.152.028.278.088-.073.134-.101.168-.14 1.88-2.146 2.968-4.651 3.191-7.483.292-3.713-.73-7.052-3.25-9.832C21.349 3.913 17.494 2.563 13 3.462c-3.826.766-6.655 3.04-8.4 6.502-2.156 4.278-1.992 8.571.384 12.745.385.676.889 1.284 1.338 1.923l.114-.054c.006-.078.021-.156.019-.234-.038-.985.352-1.78 1.149-2.331.59-.407 1.229-.75 1.869-1.073.935-.471 1.898-.883 2.835-1.35.837-.417 1.038-1.649.513-2.4-.406-.582-.683-1.257-.992-1.903-.096-.201-.104-.403-.404-.462-.15-.03-.323-.273-.367-.451a8.373 8.373 0 0 1-.223-1.38c-.014-.171.07-.424.197-.514.203-.143.235-.28.196-.492-.146-.813-.034-1.611.2-2.39.414-1.374 1.478-2.171 2.944-2.255.131-.007.268-.078.384-.148.579-.355 1.202-.451 1.829-.213 1.591.602 2.605 1.73 2.869 3.43.094.606.015 1.238.015 1.923z"/></svg>