<svg xmlns="http://www.w3.org/2000/svg" width="64" height="64" viewBox="0 0 21.082 25.303"><path fill-rule="evenodd" clip-rule="evenodd" d="M3.108 9.437c.112-.203.07-.4.075-.589.016-.695-.024-1.395.047-2.084.268-2.591 1.49-4.596 3.781-5.882C8.305.155 9.714-.081 11.199.024c2.904.207 5.851 2.264 6.587 6.021.104.53.152 1.069.142 1.612-.011.577-.002 1.153-.002 1.69.159.178.323.123.47.133.326.024.657.017.979.064.994.146 1.688 1.067 1.7 1.922.003.193.007.386.007.579v10.712c0 .173-.005.347-.004.521.008.868-.692 1.933-2 2.019-.134.008-.27.003-.404.003l-16.271-.001c-.213 0-.428.005-.635-.032-.979-.175-1.672-.95-1.76-1.957-.01-.113-.008-.229-.008-.345 0-3.706-.002-7.412.003-11.118 0-.249.019-.504.08-.744.221-.868.783-1.397 1.665-1.562.264-.049.537-.042.806-.059.19-.011.385.025.554-.045zm12.695-.016c.05-.462.068-2.233.018-2.577a8.452 8.452 0 0 0-.167-.85C15 3.465 12.484 1.79 9.898 2.115c-2.576.323-4.509 2.505-4.611 4.882-.032.732-.016 1.465-.018 2.198-.001.073.023.146.042.248.124.014.234.034.345.037 2.392.07 9.595.03 10.147-.059zm-4.429 8.398c.205-.144.369-.244.517-.363a2.118 2.118 0 0 0 .463-2.767c-.644-1.019-1.83-1.2-2.689-.807-1.441.658-1.672 2.61-.428 3.595.148.117.309.218.487.343-.219.556-.435 1.088-.64 1.625-.203.533-.466 1.045-.603 1.597.07.034.104.063.138.063 1.138.005 2.276.008 3.414.009.154 0 .308-.011.462-.018a.112.112 0 0 0 .055-.018c.013-.01.021-.03.065-.101-.153-.488-.386-.993-.585-1.508-.209-.536-.426-1.071-.656-1.65z"/></svg>