<svg xmlns="http://www.w3.org/2000/svg" width="64" height="64" viewBox="0 0 38.25 31.046"><path fill-rule="evenodd" clip-rule="evenodd" d="M5.552 31.046c-.144-.043-.288-.088-.432-.13-1.292-.383-2.135-1.491-2.162-2.87-.016-.802-.003-1.604-.004-2.407v-.507H0v-9.926c.001-2.17 1.143-3.805 3.174-4.589.162-.063.317-.255.388-.424A851.947 851.947 0 0 0 6.848 2.36C7.354 1.131 8.19.323 9.516.064 9.554.057 9.585.022 9.62 0h19.009c.061.028.12.067.184.082 1.179.261 2.01.946 2.478 2.056 1.104 2.621 2.207 5.243 3.292 7.872.147.356.336.569.709.712a4.6 4.6 0 0 1 2.955 4.309c.008 3.236.002 6.472.001 9.707 0 .109-.009.218-.016.384h-2.937c0 .827.006 1.598-.002 2.369-.005.456.023.922-.063 1.364-.219 1.116-.878 1.851-2.017 2.108-.063.014-.122.055-.183.083h-.913c-.088-.032-.174-.073-.265-.096-1.472-.372-2.396-1.552-2.398-3.074V25.16H8.797v.485c0 .872.009 1.743-.003 2.614-.019 1.379-.843 2.388-2.184 2.701-.078.019-.152.057-.228.086h-.83zm26.246-20.688c-.07-.178-.115-.305-.169-.427-.927-2.081-1.867-4.156-2.778-6.244-.232-.532-.595-.75-1.156-.75-5.712.005-11.422.006-17.134-.001-.583 0-.95.236-1.186.776-.905 2.076-1.833 4.141-2.752 6.211-.059.132-.107.27-.171.436l25.346-.001zM9.31 16.477a3.068 3.068 0 0 0-3.076-3.093c-1.682-.009-3.085 1.411-3.074 3.109.011 1.661 1.389 3.037 3.049 3.042 1.722.007 3.104-1.356 3.101-3.058zm22.463 3.058c1.698.009 3.083-1.345 3.095-3.026a3.07 3.07 0 0 0-3.046-3.123c-1.684-.027-3.094 1.368-3.106 3.075-.012 1.672 1.374 3.065 3.057 3.074z"/></svg>