<svg xmlns="http://www.w3.org/2000/svg" width="64" height="64" viewBox="0 0 33.615 29.807"><path fill-rule="evenodd" clip-rule="evenodd" d="M23.972 0c.324.072.651.133.971.22a6.676 6.676 0 0 1 3.198 1.913c.175.187.324.243.588.178 1.396-.344 2.697-.905 4.012-1.711-.237.891-.593 1.63-1.11 2.269-.508.628-1.093 1.195-1.712 1.862.667-.156 1.285-.274 1.886-.452.593-.176 1.167-.412 1.809-.643-.071.131-.114.229-.174.318-.777 1.171-1.685 2.23-2.777 3.116-.323.262-.412.528-.409.921.042 5.559-1.614 10.557-5.119 14.878-3.337 4.113-7.674 6.425-12.981 6.857-.134.011-.265.053-.397.081h-2.37c-.116-.027-.231-.07-.349-.08-3.09-.247-5.92-1.251-8.526-2.913-.146-.094-.286-.197-.512-.353 3.865.362 7.178-.683 10.19-3.142-1.599-.108-2.929-.6-4.071-1.551-1.151-.957-1.93-2.159-2.396-3.656 1.01.166 1.964.179 2.915-.154-1.625-.503-2.926-1.429-3.926-2.794-.993-1.356-1.594-3.642-1.357-4.606.909.473 1.844.845 3.016.84-1.587-1.265-2.521-2.795-2.877-4.65-.354-1.836-.134-3.606.773-5.339 1.764 2.298 3.83 4.15 6.308 5.521 2.473 1.369 5.111 2.167 7.928 2.303 0-1.052-.138-2.059.025-3.013.511-2.979 2.166-5.055 5.116-5.982.314-.099.64-.159.961-.238h1.367z"/></svg>