<svg xmlns="http://www.w3.org/2000/svg" width="64" height="64" viewBox="0 0 27.893 29.807"><path d="M7.566 29.807c-.847-.154-1.703-.274-2.54-.472a8.364 8.364 0 0 1-3.007-1.36C.034 26.537-.537 24.401.525 22.19c1.018-2.12 2.779-3.394 4.984-4.01 1.036-.289 2.15-.303 3.231-.425.295-.033.597-.004 1.042-.004-1.201-1.327-1.476-2.71-.766-4.233-.706-.061-1.39-.059-2.049-.187-2.729-.527-4.65-2.71-5.065-5.455C1.324 4.056 4.301.938 7.595.191c.294-.066.588-.128.883-.191h9.115c-.608.479-1.151 1.133-1.841 1.385-.673.245-1.496.077-2.252.092-.083.001-.167.009-.226.014.435.421.924.789 1.279 1.257 1.752 2.311 1.594 5.838-.342 8.051-.358.409-.785.758-1.17 1.145-.299.3-.617.59-.869.928-.543.726-.59 1.605-.043 2.322.493.646 1.093 1.212 1.655 1.805.134.142.3.255.457.375 2.272 1.736 3.054 4.091 2.573 6.814-.466 2.643-2.266 4.214-4.723 5.055-.81.276-1.678.381-2.519.564H7.566zm1.356-1.452c.327-.027.767-.045 1.203-.101 1.097-.137 2.129-.444 3.047-1.099 1.772-1.266 2.419-4.836.231-6.551-.75-.587-1.448-1.379-2.306-1.666-2.458-.821-4.755-.297-6.672 1.473-1.726 1.594-1.869 3.935-.422 5.795 1.214 1.562 2.889 2.135 4.919 2.149zm3.906-20.404c-.052-.482-.07-.971-.161-1.446-.341-1.765-1.074-3.325-2.539-4.441C8.266.645 6.164 1.219 5.253 3.376c-.597 1.415-.578 2.879-.224 4.335.415 1.711 1.201 3.22 2.711 4.231 1.677 1.123 3.474.648 4.418-1.132.474-.893.644-1.855.67-2.859zm15.065-.476h-2.929v2.911h-2.915V7.461h-2.926V4.483h2.899V1.528h2.915v2.939h2.957l-.001 3.008z" fill-rule="evenodd" clip-rule="evenodd"/></svg>