<svg xmlns="http://www.w3.org/2000/svg" width="64" height="64" viewBox="0 0 28.258 28.255"><path fill-rule="evenodd" clip-rule="evenodd" d="M17.089 3.714c.157.103.265.206.392.251 2.11.753 1.437 1.025 3.509.004.433-.214.92-.327 1.392-.451.588-.155 1.105.028 1.552.42.157.138.296.298.437.453.523.575.619 1.255.386 1.961-.174.528-.437 1.029-.673 1.535-.147.314-.321.615-.511.977.257.777.556 1.548.973 2.321.456.154.923.29 1.373.47.452.181.912.365 1.324.619.832.512 1.166 1.378.954 2.364-.11.508-.458.858-.86 1.151-.688.501-1.473.798-2.278 1.049-.354.11-.591.361-.739.695-.086.191-.169.385-.249.579l-.436 1.056c-.065.502.216.755.365 1.063.215.44.439.875.633 1.324.403.932.289 1.776-.475 2.49-.153.144-.291.316-.469.417-.237.134-.5.268-.764.3a2.94 2.94 0 0 1-1.638-.266l-1.952-.924-2.249.929c-.189.596-.344 1.131-.531 1.653a7.346 7.346 0 0 1-.434.952c-.524.995-1.447 1.353-2.688 1.039a1.355 1.355 0 0 1-.833-.602 14.274 14.274 0 0 1-.813-1.46c-.236-.502-.412-1.032-.633-1.597l-2.075-.916c-.622.033-.988.541-1.51.728-.459.164-.908.371-1.381.473-1.095.236-1.908-.255-2.505-1.13-.146-.215-.212-.525-.21-.792.002-.343.059-.705.182-1.023.251-.652.548-1.287.854-1.916.162-.335.219-.657.068-1.002-.055-.128-.127-.25-.181-.378-.563-1.367-.484-1.501-1.941-1.935-.591-.176-1.139-.533-1.667-.871-.494-.315-.735-.804-.779-1.413-.068-.94.283-1.641 1.09-2.101a7.853 7.853 0 0 1 1.146-.513c.458-.17.931-.301 1.395-.448.568-.669.674-1.533 1.11-2.245-.212-.434-.402-.805-.576-1.183-.204-.445-.442-.882-.582-1.347-.417-1.39-.145-2.147 1.313-2.88.317-.16.661-.207 1.021-.13.761.162 1.487.418 2.126.864.595.415 1.167.362 1.772.05.248-.128.516-.216.776-.316.416-.161.691-.436.83-.874.276-.869.603-1.718 1.183-2.442.784-.978 2.331-1.003 3.126-.023.261.321.479.692.646 1.071.197.446.313.927.476 1.39.067.194.162.378.228.53zm2.412 10.378c.087-2.79-2.44-5.3-5.374-5.357-2.502-.049-5.463 1.969-5.409 5.502.048 3.133 2.525 5.388 5.344 5.364 3.298-.026 5.563-2.813 5.439-5.509z"/></svg>