<svg xmlns="http://www.w3.org/2000/svg" width="64" height="64" viewBox="0 0 26.994 26.151"><path d="M26.994 16.111c-.129-.007-.259-.02-.388-.02l-15.3-.001c-.478 0-.492-.015-.492-.489v-5.109c0-.392.035-.426.433-.426 5.11-.001 10.22 0 15.331-.002.139 0 .278-.016.417-.025l-.001 6.072zm0-10.099c-.42.002-.841.007-1.261.007l-14.386.001h-.433c-.035-.215-.096-.414-.096-.614-.005-1.802.001-3.604.004-5.406h16.172v6.012zM10.822 26.151c-.003-1.862-.008-3.724-.003-5.586 0-.14.076-.279.116-.42.103-.006.183-.013.262-.013h15.647c.05 0 .1.004.15.007v6.012H10.822zM0 10.16c.37-.031.74-.088 1.11-.09 1.843-.01 3.685-.004 5.528-.004.059 0 .117.01.202.017v6.008h-.326c-1.772 0-3.545.006-5.317-.005-.4-.002-.798-.062-1.197-.095V10.16zM6.854 0l.007 5.888c0 .028-.013.057-.031.132h-.339c-1.752 0-3.505.001-5.258-.003-.15-.001-.352.083-.41-.171-.006-.023-.089-.038-.135-.037-.23.004-.459.014-.688.022V0h6.854zM0 20.32c.229.008.458.018.688.023.039.001.105-.002.112-.021.118-.307.381-.186.584-.187 1.692-.008 3.385-.005 5.077-.005h.361c.018.059.039.096.039.132-.001 1.963-.004 3.925-.007 5.888H0v-5.83z" fill-rule="evenodd" clip-rule="evenodd"/></svg>