<svg xmlns="http://www.w3.org/2000/svg" width="64" height="64" viewBox="0 0 29.832 29.807"><path fill-rule="evenodd" clip-rule="evenodd" d="M13.817 29.807c-.847-.153-1.694-.304-2.541-.463-.175-.032-.344-.093-.601-.163 1.543-2.163 1.839-4.717 2.558-7.185.76 1.007 1.751 1.562 2.938 1.709 2.239.277 4.167-.44 5.776-1.99 1.627-1.567 2.445-3.556 2.81-5.747.295-1.771.357-3.539-.328-5.249-1.076-2.69-3.044-4.458-5.798-5.239-3.546-1.007-6.934-.542-9.983 1.602-3.183 2.236-4.585 6.242-3.496 9.756.416 1.34 1.156 2.435 2.457 3.072.624.306.884.188 1.063-.467.016-.059.024-.12.046-.176.304-.77.215-1.404-.311-2.128-.919-1.268-.818-2.76-.463-4.209.763-3.115 3.426-5.258 6.674-5.337a9.97 9.97 0 0 1 2.567.259c2.414.588 3.936 2.438 4.077 4.921.107 1.888-.188 3.724-.978 5.459-.408.896-.954 1.692-1.76 2.283-.593.435-1.253.666-1.995.657-1.654-.021-2.708-1.354-2.292-2.955.332-1.276.755-2.528 1.068-3.809.146-.593.223-1.237.157-1.839-.161-1.462-1.514-2.192-2.865-1.593-1.115.495-1.635 1.456-1.877 2.585-.228 1.063-.117 2.111.229 3.141.067.2.086.446.039.65-.61 2.645-1.271 5.278-1.84 7.932-.221 1.03-.239 2.103-.354 3.195-.105-.046-.27-.105-.422-.187C2.718 25.286-.18 20.582.006 14.176.213 7.117 5.738 1.152 12.748.172c.357-.05.712-.114 1.069-.172h2.188c.462.07.926.131 1.387.211 8.056 1.394 13.413 8.748 12.293 16.87-.813 5.893-5.396 10.929-11.183 12.269-.823.19-1.664.306-2.497.457h-2.188z"/></svg>