<svg xmlns="http://www.w3.org/2000/svg" width="64" height="64" viewBox="0 0 29.209 28.386"><path fill-rule="evenodd" clip-rule="evenodd" d="M4.858 9.89c1.235 0 2.469.005 3.704-.002 1.366-.007 2.385-.725 2.852-2.011.835-2.303 1.66-4.61 2.497-6.913.093-.257.198-.519.351-.743.205-.297.461-.294.668.005.146.211.249.458.337.702.825 2.276 1.641 4.555 2.46 6.834.515 1.432 1.502 2.126 3.035 2.127 2.425.001 4.851-.001 7.276.003.246 0 .497.005.736.055.453.094.562.398.285.762a2.29 2.29 0 0 1-.337.338c-2.144 1.85-4.302 3.685-6.427 5.555-.947.833-1.226 1.917-.873 3.126.718 2.463 1.463 4.918 2.189 7.379a3.3 3.3 0 0 1 .151.808c.014.404-.218.562-.59.41a3.497 3.497 0 0 1-.675-.389c-2.052-1.448-4.099-2.902-6.149-4.354-1.149-.813-2.362-.813-3.514.002-2.038 1.443-4.074 2.889-6.112 4.331-.177.125-.356.254-.55.351-.522.261-.791.084-.741-.489.018-.214.073-.429.134-.636.726-2.461 1.463-4.919 2.184-7.381.376-1.284.052-2.379-.96-3.256-2.12-1.834-4.244-3.662-6.367-5.493-.055-.047-.126-.087-.158-.147-.104-.198-.314-.458-.254-.59.078-.172.374-.339.579-.344 1.423-.029 2.846-.015 4.269-.015V9.89z"/></svg>