<svg xmlns="http://www.w3.org/2000/svg" width="64" height="64" viewBox="0 0 22.386 19"><path d="M22.386 15.325a.733.733 0 0 1-.336.287c-.165.074-.337.137-.507.202-.062.023-.126.039-.189.058l-.285.664c.1.177.208.352.301.537.073.148.125.306.123.478a.437.437 0 0 1-.122.316c-.047.048-.097.092-.14.142a.35.35 0 0 1-.337.118 1.337 1.337 0 0 1-.311-.084c-.149-.068-.293-.154-.437-.236-.071-.041-.139-.089-.207-.135l-.657.27c-.05.174-.086.344-.146.505a1.682 1.682 0 0 1-.192.347c-.096.137-.239.194-.406.206a.532.532 0 0 1-.512-.244 2.267 2.267 0 0 1-.264-.561c-.029-.086-.054-.173-.08-.255l-.662-.29c-.229.2-.482.349-.777.426a.497.497 0 0 1-.486-.108c-.006-.005-.012-.012-.019-.016-.237-.147-.266-.362-.201-.609.054-.202.141-.39.237-.574.042-.08.088-.159.13-.236l-.277-.646a5.561 5.561 0 0 0-.183-.069 2.238 2.238 0 0 1-.517-.243c-.259-.178-.352-.445-.25-.739a.574.574 0 0 1 .237-.28c.16-.109.341-.168.525-.22l.185-.05c.048-.12.089-.228.134-.334.042-.099.09-.196.145-.313-.036-.067-.08-.146-.12-.226a2.255 2.255 0 0 1-.236-.652c-.031-.199.014-.361.184-.479a.669.669 0 0 0 .076-.065c.142-.131.307-.15.487-.103.178.047.34.13.493.23.076.049.15.102.232.156l.661-.283c.06-.155.108-.313.179-.462.061-.126.138-.246.221-.358a.39.39 0 0 1 .347-.162c.041.002.083.002.124 0 .174-.009.302.072.406.203.11.138.175.3.228.466.03.095.052.192.08.3l.671.287.158-.082c.171-.085.339-.176.513-.252.09-.039.19-.057.288-.073.167-.028.312.013.42.153.03.039.07.071.103.109a.448.448 0 0 1 .099.395 1.546 1.546 0 0 1-.192.483c-.076.127-.161.251-.251.389l.277.667c.054.014.117.028.18.045.119.034.24.064.357.104.199.067.371.176.5.346-.002.185-.002.368-.002.55zm-5.11-.214c.006.708.529 1.324 1.296 1.336a1.33 1.33 0 0 0 1.356-1.308c.015-.731-.588-1.326-1.328-1.333-.731-.006-1.308.568-1.324 1.305zm-3.705-3.891c.204.267.381.538.526.827.142.283.256.575.288.894.034.333-.045.624-.296.859a5.621 5.621 0 0 0-.299.299c-.211.229-.472.29-.77.251a2.81 2.81 0 0 1-.716-.199 6.1 6.1 0 0 1-.861-.446l-.225-.137c-.451.239-.923.44-1.415.572.007.054.023.102.016.145-.085.45-.199.892-.422 1.295a2.68 2.68 0 0 1-.297.428.972.972 0 0 1-.768.349h-.299a.83.83 0 0 1-.563-.229 2.028 2.028 0 0 1-.38-.489c-.218-.375-.363-.781-.489-1.194-.033-.11-.073-.218-.111-.327-.101-.037-.2-.074-.302-.109a6.886 6.886 0 0 1-1.121-.518l.011.117c-.025.021-.056.049-.089.072a4.545 4.545 0 0 1-1.07.575c-.228.082-.46.136-.705.127a.938.938 0 0 1-.595-.221c-.119-.102-.24-.204-.361-.305a.684.684 0 0 1-.243-.5 1.91 1.91 0 0 1 .082-.663 5.57 5.57 0 0 1 .549-1.223c.049-.086.101-.171.158-.268-.104-.22-.217-.44-.314-.667-.094-.221-.17-.449-.26-.69-.052-.015-.113-.036-.176-.054a6.076 6.076 0 0 1-.983-.349 4.767 4.767 0 0 1-.562-.317 1.813 1.813 0 0 1-.313-.281.716.716 0 0 1-.194-.475 7.436 7.436 0 0 1 .003-.448.891.891 0 0 1 .256-.579c.15-.16.329-.279.521-.378.388-.197.802-.313 1.226-.401.072-.014.143-.031.211-.045.091-.247.169-.483.265-.712.092-.221.201-.434.306-.656l-.142-.237a5.679 5.679 0 0 1-.547-1.142 2.146 2.146 0 0 1-.129-.681c.003-.255.087-.469.295-.629.112-.086.217-.181.324-.273a.883.883 0 0 1 .569-.217 1.81 1.81 0 0 1 .611.089c.399.128.761.328 1.107.558l.261.174a7.063 7.063 0 0 1 1.377-.582c.028-.094.058-.188.085-.282a5.83 5.83 0 0 1 .4-1.043c.11-.215.237-.418.406-.594A.88.88 0 0 1 8.095 0c.091.003.183-.001.273.002.261.01.481.106.666.292.174.173.298.377.4.597.168.354.273.729.352 1.111.013.064.031.126.049.194.487.142.944.332 1.39.579.071-.041.143-.08.213-.122a5.867 5.867 0 0 1 1.022-.509c.257-.095.52-.17.799-.165a.751.751 0 0 1 .576.247c.101.11.204.218.309.326.225.233.292.513.251.826-.026.198-.08.389-.153.575a4.89 4.89 0 0 1-.496.917c-.05.076-.102.151-.16.236.108.229.225.457.324.691.096.229.173.465.263.708.156.035.318.067.479.106.33.081.651.191.952.354.169.091.325.2.459.339.141.147.25.316.268.522.018.205.019.414.006.62-.009.161-.095.298-.202.418a1.96 1.96 0 0 1-.509.396 4.586 4.586 0 0 1-1.172.475c-.216.055-.331.152-.391.375-.106.387-.29.743-.492 1.11zm-2.424-3.055c.019-1.499-1.271-2.937-2.998-2.934a2.916 2.916 0 0 0-2.923 2.938 2.946 2.946 0 0 0 2.926 2.969c1.669 0 3.01-1.411 2.995-2.973z" fill-rule="evenodd" clip-rule="evenodd"/></svg>