<svg xmlns="http://www.w3.org/2000/svg" width="64" height="64" viewBox="0 0 39.9 40.05"><path fill-rule="evenodd" clip-rule="evenodd" d="M31.799 21.227c-.448.774-1.098 1.184-1.83 1.45-.921.336-1.862.614-2.795.919-.532.174-1.074.327-1.591.541a.686.686 0 0 0-.351.463 5.405 5.405 0 0 0 0 1.252c.021.187.158.392.302.526.201.189.453.325.69.475.606.382 1.1.867 1.418 1.516.427.871 1.117 1.392 2.04 1.689.596.192 1.18.465 1.712.795 1.396.865 2.927 1.348 4.521 1.629.859.151 1.641.406 2.221 1.072.646.744 1.24 1.532 1.359 2.559.131 1.112.45 2.202.398 3.336-.011.255-.261.542-.52.555-.489.022-.98.046-1.471.046-11.994.002-23.989.002-35.984.001-.421 0-.842-.011-1.262-.031-.49-.024-.712-.319-.646-.853.12-.974.239-1.948.37-2.92a4.363 4.363 0 0 1 3.485-3.719c1.733-.339 3.385-.86 4.91-1.781.594-.359 1.271-.584 1.92-.848.605-.245 1.111-.603 1.413-1.19.461-.9 1.11-1.615 2.003-2.092.421-.225.589-.575.604-1.025.008-.28.032-.563.005-.84-.027-.28-.12-.556-.429-.657-.933-.305-1.871-.589-2.8-.903-.663-.224-1.311-.491-1.97-.726-.487-.174-.82-.54-1.127-.918a.687.687 0 0 1-.091-.568c.168-.458.385-.902.615-1.333.909-1.698 1.329-3.53 1.534-5.426.278-2.58.652-5.146 1.214-7.68.091-.409.188-.82.326-1.214.707-2.02 1.998-3.49 3.988-4.365 1.572-.691 3.174-1.111 4.897-.908 1.931.228 3.658.987 5.146 2.21 1.053.867 1.622 2.099 2.044 3.376.197.596.322 1.221.429 1.841.354 2.072.714 4.141.939 6.235.233 2.168.742 4.28 1.776 6.232.231.426.408.88.588 1.279z"/></svg>