<svg xmlns="http://www.w3.org/2000/svg" width="64" height="64" viewBox="0 0 34.458 33.477"><g fill-rule="evenodd" clip-rule="evenodd"><path d="M34.458 32.767c-.242.131-.485.256-.723.391-.99.563-1.896.34-2.726-.33-.381-.307-.714-.672-1.063-1.018l-6.88-6.814c-.297-.293-.601-.582-.871-.844-.601-.027-.941.365-1.334.617a13.133 13.133 0 0 1-5.077 1.93C7.991 27.913 1.702 22.604.289 16.231-1.064 10.13 2.386 2.819 9.6.597 16.806-1.622 24.63 2.54 26.663 9.91c.811 2.939.616 5.83-.57 8.645-.246.582-.529 1.146-.793 1.715.027.301.214.492.417.693 2.745 2.713 5.48 5.434 8.226 8.145.136.135.342.195.516.291l-.001 3.368zM13.531 22.712c5.022.051 9.384-3.707 9.425-9.219.043-5.766-4.698-9.336-9.328-9.363-4.827-.027-9.42 3.752-9.439 9.262-.021 5.888 4.985 9.466 9.342 9.32z"/><path d="M18.045 12.327c.069.219.196.473.222.738.041.416.023.838.012 1.258-.014.516-.271.799-.747.828-.349.02-.699.031-1.049.031-1.114.002-1.286.268-1.29 1.4-.002.348-.025.699-.04 1.047-.009.24-.3.594-.509.596a53.5 53.5 0 0 1-1.879-.006c-.269-.008-.535-.289-.549-.545-.024-.42-.032-.838-.05-1.258a16.472 16.472 0 0 0-.038-.627c-.021-.256-.29-.537-.543-.553-.488-.031-.979-.041-1.467-.072-.207-.016-.424-.037-.614-.113-.112-.043-.247-.193-.259-.305a14.061 14.061 0 0 1-.072-1.465c.005-.912.174-1.072 1.105-1.109.419-.016.839-.02 1.258-.039.366-.02.596-.281.615-.695.025-.559.041-1.119.068-1.678.014-.258.279-.537.539-.541.628-.01 1.256-.01 1.883 0 .248.004.451.293.513.574.159.736-.206 1.551.336 2.227.678.26 1.389.086 2.079.174.137.018.268.073.476.133z"/></g></svg>