<svg xmlns="http://www.w3.org/2000/svg" width="64" height="64" viewBox="0 0 42.886 33.375"><path fill-rule="evenodd" clip-rule="evenodd" d="M42.886 5.715v.523c-.148.27-.247.585-.451.802-2.645 2.813-5.304 5.611-7.959 8.413L23.104 27.454a.573.573 0 0 0-.147.233 1.707 1.707 0 0 1-.439.765 1214.374 1214.374 0 0 0-3.975 4.196c-.291.309-.585.602-1.005.727h-.48c-.4-.109-.691-.368-.97-.664-5.12-5.41-10.244-10.816-15.371-16.219C.41 16.168.116 15.845 0 15.4v-.523c.11-.438.385-.767.697-1.079.37-.37.722-.758 1.082-1.138.96-1.013 1.919-2.027 2.881-3.038.656-.689 1.445-.684 2.105.01l.135.143c3.36 3.545 6.721 7.09 10.08 10.637.049.052.084.117.16.223.1-.125.157-.209.226-.282C23.585 13.789 29.806 7.226 36.022.659c.28-.296.571-.556.975-.659h.436c.395.102.685.351.958.643a635.758 635.758 0 0 0 3.745 3.954c.316.331.628.659.75 1.118z"/></svg>