<svg xmlns="http://www.w3.org/2000/svg" width="64" height="64" viewBox="0 0 25.001 25.009"><path fill-rule="evenodd" clip-rule="evenodd" d="M22.041 9.249c.114.057.22.107.324.161 1.372.726 2.235 1.844 2.541 3.362.285 1.411-.075 2.678-.994 3.775-.85 1.019-1.948 1.619-3.252 1.852-.188.033-.381.043-.574.061-.082.007-.166-.007-.268-.014-.008-.084-.021-.158-.021-.229-.002-.44-.002-.88-.002-1.316 0-2.55.022-5.097-.005-7.646-.024-2.5-1.351-5.106-3.821-6.467a6.965 6.965 0 0 0-2.675-.84c-1.712-.182-3.303.168-4.747 1.105-1.518.986-2.499 2.377-3.024 4.099a7.893 7.893 0 0 0-.336 2.312c.001 2.879 0 5.758-.002 8.64 0 .161.03.315.087.467.354.944.99 1.612 1.931 1.989.479.191.976.318 1.479.416.691.138 1.387.262 2.081.39.03.007.063 0 .112 0 .04-.047.086-.104.131-.161.082-.101.16-.205.244-.299.359-.406.817-.578 1.35-.544 1.257.08 2.179 1.044 2.218 2.247.042 1.307-.94 2.196-1.938 2.368a2.346 2.346 0 0 1-2.582-1.505 3.777 3.777 0 0 0-.084-.208c-.443-.098-.883-.191-1.32-.293-.854-.198-1.703-.42-2.512-.769a9.078 9.078 0 0 1-.949-.468c-1.25-.712-2.064-1.773-2.469-3.15-.053-.175-.098-.35-.144-.518-1.811-.95-2.852-2.398-2.818-4.468.034-2.059 1.112-3.47 2.944-4.363.155-2.865 1.298-5.26 3.532-7.094C8.249.687 10.306-.026 12.59.001c2.552.03 4.767.947 6.593 2.737 1.815 1.784 2.737 3.975 2.858 6.511z"/></svg>