<svg xmlns="http://www.w3.org/2000/svg" width="64" height="64" viewBox="0 0 18.1 17.691"><path d="M18.1 7.652c-.068.133-.096.295-.186.344a503.627 503.627 0 0 1-5.15 2.822c-.263.141-.559.092-.788-.094a32.459 32.459 0 0 1-1.269-1.1C8.479 7.597 6.259 5.566 4.031 3.539c-.567-.516-1.147-1.018-1.669-1.479-.249-.016-.351.107-.243.236C4.102 4.65 6.1 6.992 8.09 9.341c.722.852 1.473 1.682 2.115 2.555-.066.131-.082.209-.13.248-1.446 1.119-3.146 1.797-4.72 2.693-.6.342-1.164.791-1.89.855-.444-.328-.458-.85-.556-1.303-.622-2.871-1.213-5.748-1.816-8.623C.734 4.054.366 2.345.01.634-.064.279.305-.073.646.013c.202.049.411.084.601.166 5.456 2.363 10.91 4.729 16.361 7.102.184.08.33.248.492.371zm-7.434 7.658c-.029.691-.049 1.383-.1 2.07-.008.109-.135.262-.241.299a.424.424 0 0 1-.365-.092c-.811-.852-1.61-1.715-2.404-2.582-.193-.211-.149-.578.081-.729.81-.527 1.591-1.109 2.528-1.402.086-.027.257.082.327.174a.71.71 0 0 1 .117.391c.012.623.005 1.248.005 1.871h.052z" fill-rule="evenodd" clip-rule="evenodd"/></svg>