<svg xmlns="http://www.w3.org/2000/svg" width="64" height="64" viewBox="0 0 25.033 20.828"><path fill-rule="evenodd" clip-rule="evenodd" d="M4.184 20.828c-.024-.267-.011-.496-.013-.724-.003-.224-.001-.448-.001-.672v-2.054c-.002-.223.005-.447-.005-.664-.07-.057-.141-.035-.207-.035-.622-.002-1.244-.002-1.867 0-.201 0-.399-.019-.59-.082-.842-.275-1.337-.854-1.484-1.725-.022-.14-.016-.286-.016-.429V4.058c0-.648.002-1.296-.001-1.944-.001-.29.041-.571.159-.837C.474.569 1.017.15 1.78.018c.085-.014.173-.013.26-.017.051-.002.101-.001.15-.001h20.657c.182 0 .36.006.539.043a2.078 2.078 0 0 1 1.62 1.747c.015.117.026.235.026.353l.001 12.384c0 .36-.063.708-.237 1.025-.396.718-1.007 1.098-1.831 1.124-.08.002-.161 0-.242 0H8.602c-.315 0-.215-.044-.437.177-1.269 1.267-2.536 2.535-3.804 3.803-.048.049-.097.095-.177.172zM3.137 5.195c.074.028.155.015.234.015h18.286c.044 0 .087.001.131-.001.035-.002.07-.009.1-.013.008-.024.016-.035.016-.046.001-.305.002-.61 0-.916 0-.022-.013-.044-.023-.076H3.405c-.056 0-.112-.001-.168.001-.036.002-.07.01-.101.014a6.01 6.01 0 0 0 .001 1.022zm18.75 5.229H3.407c-.056 0-.112-.002-.168.001-.035.001-.071.009-.105.014-.007.027-.016.045-.016.062-.002.299-.002.598 0 .896 0 .023.015.045.025.079h18.492c.05 0 .101.001.149-.001.035-.002.071-.01.104-.015a7.026 7.026 0 0 0-.001-1.036zM11.473 8.337l.004-.352c.001-.118.004-.236-.001-.354-.004-.109.021-.222-.023-.339H3.238c-.036.002-.071.008-.118.014l-.005.343c0 .118-.004.236.001.354.005.109-.023.223.025.334h8.332zm2.082-1.028c0 .175-.004.342.001.51.005.171-.021.344.021.524h8.24c.023 0 .047-.007.08-.012.016-.116.008-.227.009-.337.001-.118.002-.236 0-.355-.002-.11.01-.221-.011-.339-.046-.003-.082-.006-.119-.007-1.241-.024-7.981-.013-8.221.016z"/></svg>