<svg xmlns="http://www.w3.org/2000/svg" width="64" height="64" viewBox="0 0 36.819 36.819"><path fill-rule="evenodd" clip-rule="evenodd" d="M21.484 36.819h-6.149c.003-.059.01-.118.01-.176V21.688c0-.063-.006-.127-.01-.212H.237c-.079 0-.157.005-.236.008v-6.149c.059.003.118.01.176.01h14.956c.064 0 .128-.006.213-.011V.234c0-.078-.006-.157-.01-.235h6.149c-.003.059-.01.118-.01.176v14.956c0 .064.006.128.01.214h15.099c.079 0 .157-.007.235-.011v6.149c-.046-.003-.091-.008-.137-.008H21.668c-.058 0-.115.006-.194.01v15.098c.001.079.007.158.01.236z"/></svg>