<svg xmlns="http://www.w3.org/2000/svg" width="64" height="64" viewBox="0 0 29.773 29.636"><path fill-rule="evenodd" clip-rule="evenodd" d="M29.773 23.393c-.138.488-.286.973-.413 1.464-.28 1.085-.868 1.944-1.762 2.632-1.4 1.078-2.97 1.796-4.692 2.072a6.67 6.67 0 0 1-2.664-.138c-2.702-.708-5.349-1.588-7.74-3.096-2.136-1.346-3.933-3.082-5.721-4.84C3.266 18.03 1.212 13.788.126 9.05-.161 7.796.072 6.5.514 5.264a11.499 11.499 0 0 1 1.721-3.151C3.184.876 4.504.359 5.992.161c.232-.031.464-.068.695-.11 1.055-.192 1.93.157 2.48 1.084a234.049 234.049 0 0 1 3.175 5.491c.652 1.169.476 2.142-.493 3.072a57.589 57.589 0 0 1-2.148 1.955c-.226.196-.232.341-.105.592.824 1.63 1.906 3.063 3.161 4.389 1.37 1.446 2.972 2.548 4.716 3.475.258.137.4.109.595-.105.696-.769 1.394-1.538 2.133-2.265.864-.851 1.815-.993 2.882-.403 1.705.943 3.401 1.905 5.061 2.923.602.369 1.089.922 1.629 1.391v1.743z"/></svg>